<svg width="30" height="30" viewBox="0 0 30 30" fill="none" xmlns="http://www.w3.org/2000/svg"><g clip-path="url(#clip0_30_18733)"><mask id="path-1-outside-1_30_18733" maskUnits="userSpaceOnUse" x="-.883" y="-.414" width="32" height="31" fill="#000"><path fill="#fff" d="M-.883-.414h32v31h-32z"/><path d="M30 13.285c0-2.51-1.63-4.645-3.887-5.407-.454-1.842-1.988-3.238-3.872-3.566a4.034 4.034 0 00-1.056-2.35A4.272 4.272 0 0018.036.585a4.25 4.25 0 00-3.462 1.765A4.25 4.25 0 0011.113.586 4.272 4.272 0 007.964 1.96a4.036 4.036 0 00-1.056 2.35 4.81 4.81 0 00-3.15 1.986 4.62 4.62 0 00-.789 3.481C1.217 10.702.117 12.475.117 14.46c0 1.741.847 3.327 2.261 4.318-.813 1.282-.936 2.826-.305 4.28.772 1.78 2.505 2.932 4.414 2.932a5.2 5.2 0 00.448-.02 4.1 4.1 0 001.02 2.146 4.27 4.27 0 003.158 1.386 4.25 4.25 0 003.461-1.766 4.25 4.25 0 003.462 1.766 4.27 4.27 0 003.159-1.386 4.096 4.096 0 001.02-2.147c1.846.166 3.57-.688 4.558-2.323 1.006-1.664.918-3.62-.186-5.136A5.714 5.714 0 0030 13.285zM13.814 25.38c0 1.433-1.212 2.599-2.701 2.599-.78 0-1.52-.323-2.032-.887a2.53 2.53 0 01-.658-1.477c1.372-.545 1.727-1.475 1.993-2.175.223-.589.335-.884.972-1.055a.76.76 0 10-.394-1.47c-1.389.373-1.743 1.304-2.001 1.984-.26.685-.432 1.137-1.524 1.43l-.003.001h-.002a3.666 3.666 0 01-.977.137c-1.302 0-2.487-.791-3.018-2.016-.508-1.172-.286-2.433.594-3.373a.76.76 0 00-.227-1.207c-1.355-.647-2.197-1.954-2.197-3.412 0-1.572.979-2.962 2.494-3.54a.76.76 0 00.45-.952 3.107 3.107 0 01.42-2.794A3.328 3.328 0 017.675 5.76c1.295.003 1.58.52 1.975 1.234.36.651.852 1.543 2.176 1.543a.761.761 0 000-1.522c-.392 0-.494-.124-.844-.757-.386-.7-.946-1.711-2.537-1.961.08-.482.298-.933.642-1.31.512-.56 1.25-.88 2.026-.88 1.489 0 2.7 1.166 2.7 2.6v10.291c-1.786-.174-2.233-.99-2.78-1.995-.535-.982-1.202-2.206-3.204-2.417a.76.76 0 10-.16 1.513c1.208.128 1.534.726 2.028 1.632.179.328.37.677.612 1.014-.401.407-1.006.83-1.692 1.17a.76.76 0 00.676 1.363c.852-.423 1.585-.94 2.112-1.48.575.368 1.343.639 2.409.726v8.855zm11.656-2.523c-.601.995-1.953 1.978-3.785 1.473h-.002l-.003-.001c-1.092-.293-1.264-.745-1.524-1.43-.258-.68-.612-1.611-2.001-1.983a.76.76 0 10-.394 1.47c.637.17.749.465.972 1.053.266.7.62 1.63 1.993 2.175a2.53 2.53 0 01-.658 1.478 2.746 2.746 0 01-2.032.887c-1.489 0-2.7-1.166-2.7-2.6v-5.443c0-1.37.72-2.052 1.396-2.233.837-.224 1.715.212 2.234 1.111a.761.761 0 001.318-.76c-.86-1.491-2.447-2.223-3.946-1.821a3.174 3.174 0 00-1.003.467V4.707c0-1.433 1.212-2.6 2.701-2.6.776 0 1.514.322 2.026.881.344.377.563.828.642 1.31-1.59.25-2.15 1.261-2.537 1.961-.35.633-.452.757-.844.757a.761.761 0 000 1.521c1.324 0 1.816-.89 2.176-1.542.395-.714.68-1.231 1.976-1.234 1.27.033 2.382.757 2.916 1.82-.032 0-.065-.003-.098-.003a5.713 5.713 0 00-5.707 5.707 5.713 5.713 0 006.403 5.663.75.75 0 00.097.13c1.195 1.277.983 2.79.384 3.78zm-1.177-5.387a4.19 4.19 0 01-4.185-4.185A4.19 4.19 0 0124.293 9.1a4.19 4.19 0 014.185 4.185 4.19 4.19 0 01-4.185 4.185z"/></mask><path d="M30 13.285c0-2.51-1.63-4.645-3.887-5.407-.454-1.842-1.988-3.238-3.872-3.566a4.034 4.034 0 00-1.056-2.35A4.272 4.272 0 0018.036.585a4.25 4.25 0 00-3.462 1.765A4.25 4.25 0 0011.113.586 4.272 4.272 0 007.964 1.96a4.036 4.036 0 00-1.056 2.35 4.81 4.81 0 00-3.15 1.986 4.62 4.62 0 00-.789 3.481C1.217 10.702.117 12.475.117 14.46c0 1.741.847 3.327 2.261 4.318-.813 1.282-.936 2.826-.305 4.28.772 1.78 2.505 2.932 4.414 2.932a5.2 5.2 0 00.448-.02 4.1 4.1 0 001.02 2.146 4.27 4.27 0 003.158 1.386 4.25 4.25 0 003.461-1.766 4.25 4.25 0 003.462 1.766 4.27 4.27 0 003.159-1.386 4.096 4.096 0 001.02-2.147c1.846.166 3.57-.688 4.558-2.323 1.006-1.664.918-3.62-.186-5.136A5.714 5.714 0 0030 13.285zM13.814 25.38c0 1.433-1.212 2.599-2.701 2.599-.78 0-1.52-.323-2.032-.887a2.53 2.53 0 01-.658-1.477c1.372-.545 1.727-1.475 1.993-2.175.223-.589.335-.884.972-1.055a.76.76 0 10-.394-1.47c-1.389.373-1.743 1.304-2.001 1.984-.26.685-.432 1.137-1.524 1.43l-.003.001h-.002a3.666 3.666 0 01-.977.137c-1.302 0-2.487-.791-3.018-2.016-.508-1.172-.286-2.433.594-3.373a.76.76 0 00-.227-1.207c-1.355-.647-2.197-1.954-2.197-3.412 0-1.572.979-2.962 2.494-3.54a.76.76 0 00.45-.952 3.107 3.107 0 01.42-2.794A3.328 3.328 0 017.675 5.76c1.295.003 1.58.52 1.975 1.234.36.651.852 1.543 2.176 1.543a.761.761 0 000-1.522c-.392 0-.494-.124-.844-.757-.386-.7-.946-1.711-2.537-1.961.08-.482.298-.933.642-1.31.512-.56 1.25-.88 2.026-.88 1.489 0 2.7 1.166 2.7 2.6v10.291c-1.786-.174-2.233-.99-2.78-1.995-.535-.982-1.202-2.206-3.204-2.417a.76.76 0 10-.16 1.513c1.208.128 1.534.726 2.028 1.632.179.328.37.677.612 1.014-.401.407-1.006.83-1.692 1.17a.76.76 0 00.676 1.363c.852-.423 1.585-.94 2.112-1.48.575.368 1.343.639 2.409.726v8.855zm11.656-2.523c-.601.995-1.953 1.978-3.785 1.473h-.002l-.003-.001c-1.092-.293-1.264-.745-1.524-1.43-.258-.68-.612-1.611-2.001-1.983a.76.76 0 10-.394 1.47c.637.17.749.465.972 1.053.266.7.62 1.63 1.993 2.175a2.53 2.53 0 01-.658 1.478 2.746 2.746 0 01-2.032.887c-1.489 0-2.7-1.166-2.7-2.6v-5.443c0-1.37.72-2.052 1.396-2.233.837-.224 1.715.212 2.234 1.111a.761.761 0 001.318-.76c-.86-1.491-2.447-2.223-3.946-1.821a3.174 3.174 0 00-1.003.467V4.707c0-1.433 1.212-2.6 2.701-2.6.776 0 1.514.322 2.026.881.344.377.563.828.642 1.31-1.59.25-2.15 1.261-2.537 1.961-.35.633-.452.757-.844.757a.761.761 0 000 1.521c1.324 0 1.816-.89 2.176-1.542.395-.714.68-1.231 1.976-1.234 1.27.033 2.382.757 2.916 1.82-.032 0-.065-.003-.098-.003a5.713 5.713 0 00-5.707 5.707 5.713 5.713 0 006.403 5.663.75.75 0 00.097.13c1.195 1.277.983 2.79.384 3.78zm-1.177-5.387a4.19 4.19 0 01-4.185-4.185A4.19 4.19 0 0124.293 9.1a4.19 4.19 0 014.185 4.185 4.19 4.19 0 01-4.185 4.185z" fill="#fff"/><path d="M30 13.285c0-2.51-1.63-4.645-3.887-5.407-.454-1.842-1.988-3.238-3.872-3.566a4.034 4.034 0 00-1.056-2.35A4.272 4.272 0 0018.036.585a4.25 4.25 0 00-3.462 1.765A4.25 4.25 0 0011.113.586 4.272 4.272 0 007.964 1.96a4.036 4.036 0 00-1.056 2.35 4.81 4.81 0 00-3.15 1.986 4.62 4.62 0 00-.789 3.481C1.217 10.702.117 12.475.117 14.46c0 1.741.847 3.327 2.261 4.318-.813 1.282-.936 2.826-.305 4.28.772 1.78 2.505 2.932 4.414 2.932a5.2 5.2 0 00.448-.02 4.1 4.1 0 001.02 2.146 4.27 4.27 0 003.158 1.386 4.25 4.25 0 003.461-1.766 4.25 4.25 0 003.462 1.766 4.27 4.27 0 003.159-1.386 4.096 4.096 0 001.02-2.147c1.846.166 3.57-.688 4.558-2.323 1.006-1.664.918-3.62-.186-5.136A5.714 5.714 0 0030 13.285zM13.814 25.38c0 1.433-1.212 2.599-2.701 2.599-.78 0-1.52-.323-2.032-.887a2.53 2.53 0 01-.658-1.477c1.372-.545 1.727-1.475 1.993-2.175.223-.589.335-.884.972-1.055a.76.76 0 10-.394-1.47c-1.389.373-1.743 1.304-2.001 1.984-.26.685-.432 1.137-1.524 1.43l-.003.001h-.002a3.666 3.666 0 01-.977.137c-1.302 0-2.487-.791-3.018-2.016-.508-1.172-.286-2.433.594-3.373a.76.76 0 00-.227-1.207c-1.355-.647-2.197-1.954-2.197-3.412 0-1.572.979-2.962 2.494-3.54a.76.76 0 00.45-.952 3.107 3.107 0 01.42-2.794A3.328 3.328 0 017.675 5.76c1.295.003 1.58.52 1.975 1.234.36.651.852 1.543 2.176 1.543a.761.761 0 000-1.522c-.392 0-.494-.124-.844-.757-.386-.7-.946-1.711-2.537-1.961.08-.482.298-.933.642-1.31.512-.56 1.25-.88 2.026-.88 1.489 0 2.7 1.166 2.7 2.6v10.291c-1.786-.174-2.233-.99-2.78-1.995-.535-.982-1.202-2.206-3.204-2.417a.76.76 0 10-.16 1.513c1.208.128 1.534.726 2.028 1.632.179.328.37.677.612 1.014-.401.407-1.006.83-1.692 1.17a.76.76 0 00.676 1.363c.852-.423 1.585-.94 2.112-1.48.575.368 1.343.639 2.409.726v8.855zm11.656-2.523c-.601.995-1.953 1.978-3.785 1.473h-.002l-.003-.001c-1.092-.293-1.264-.745-1.524-1.43-.258-.68-.612-1.611-2.001-1.983a.76.76 0 10-.394 1.47c.637.17.749.465.972 1.053.266.7.62 1.63 1.993 2.175a2.53 2.53 0 01-.658 1.478 2.746 2.746 0 01-2.032.887c-1.489 0-2.7-1.166-2.7-2.6v-5.443c0-1.37.72-2.052 1.396-2.233.837-.224 1.715.212 2.234 1.111a.761.761 0 001.318-.76c-.86-1.491-2.447-2.223-3.946-1.821a3.174 3.174 0 00-1.003.467V4.707c0-1.433 1.212-2.6 2.701-2.6.776 0 1.514.322 2.026.881.344.377.563.828.642 1.31-1.59.25-2.15 1.261-2.537 1.961-.35.633-.452.757-.844.757a.761.761 0 000 1.521c1.324 0 1.816-.89 2.176-1.542.395-.714.68-1.231 1.976-1.234 1.27.033 2.382.757 2.916 1.82-.032 0-.065-.003-.098-.003a5.713 5.713 0 00-5.707 5.707 5.713 5.713 0 006.403 5.663.75.75 0 00.097.13c1.195 1.277.983 2.79.384 3.78zm-1.177-5.387a4.19 4.19 0 01-4.185-4.185A4.19 4.19 0 0124.293 9.1a4.19 4.19 0 014.185 4.185 4.19 4.19 0 01-4.185 4.185z" stroke="#fff" stroke-width=".4" mask="url(#path-1-outside-1_30_18733)"/><path d="M26.024 12.525h-.97V11.02a.761.761 0 00-1.522 0v2.266c0 .42.34.76.761.76h1.731a.76.76 0 100-1.521z" fill="#fff"/><path d="M26.024 12.525h-.97V11.02a.761.761 0 00-1.522 0v2.266c0 .42.34.76.761.76h1.731a.76.76 0 100-1.521z" stroke="#fff"/></g><defs><clipPath id="clip0_30_18733"><path fill="#fff" d="M0 0h30v30H0z"/></clipPath></defs></svg>