<svg width="39" height="39" viewBox="0 0 39 39" fill="none" xmlns="http://www.w3.org/2000/svg"><circle cx="19.5" cy="19.5" r="19.5" fill="#fff"/><path fill-rule="evenodd" clip-rule="evenodd" d="M10.234 15.648h-.103a2.582 2.582 0 00-2.583 2.582v2.583a2.582 2.582 0 002.583 2.582h.103a2.58 2.58 0 011.961.901l4.703 5.488c.78.909 2.271.357 2.271-.84V10.1c0-1.199-1.491-1.75-2.273-.84l-4.7 5.485a2.583 2.583 0 01-1.962.903zm17.503-6.101a1.291 1.291 0 10-1.778 1.872c4.72 4.483 4.72 11.722 0 16.205a1.29 1.29 0 101.778 1.872c5.791-5.5 5.791-14.449 0-19.949zm-3.805 3.615a1.292 1.292 0 00-1.779 1.872c2.617 2.486 2.617 6.489 0 8.974a1.289 1.289 0 00-.046 1.826 1.291 1.291 0 001.825.047c3.69-3.505 3.69-9.214 0-12.719z" fill="#000"/></svg>