<svg width="1501" height="1364" viewBox="0 0 1501 1364" fill="none" xmlns="http://www.w3.org/2000/svg">
<path opacity="0.5" d="M168.5 1245C142.786 1245 122 1265.79 122 1291.5C122 1317.21 142.786 1338 168.5 1338C194.214 1338 215 1317.21 215 1291.5C215 1265.79 194.06 1245 168.5 1245ZM168.5 1328.61C148.022 1328.61 131.546 1311.98 131.546 1291.65C131.546 1271.18 148.176 1254.7 168.5 1254.7C188.979 1254.7 205.454 1271.33 205.454 1291.65C205.454 1311.98 188.825 1328.61 168.5 1328.61Z" fill="url(#paint0_linear_294_146)"/>
<path opacity="0.5" d="M255.625 1328.22L251.621 1325.57L254.193 1321.68C254.595 1321.08 254.431 1320.27 253.825 1319.87L251.156 1318.1C250.549 1317.7 249.742 1317.86 249.34 1318.47L246.687 1322.47L242.683 1319.82C242.077 1319.42 241.27 1319.58 240.868 1320.19L239.1 1322.86C238.698 1323.46 238.861 1324.27 239.468 1324.67L243.472 1327.33L240.819 1331.33C240.417 1331.94 240.581 1332.74 241.188 1333.14L243.857 1334.91C244.463 1335.32 245.27 1335.15 245.672 1334.54L248.486 1330.3L252.49 1332.95C253.096 1333.35 253.903 1333.19 254.305 1332.58L255.993 1330.03C256.274 1329.35 256.231 1328.62 255.625 1328.22Z" fill="url(#paint1_linear_294_146)"/>
<g opacity="0.5">
<path fill-rule="evenodd" clip-rule="evenodd" d="M1350.86 1231.8C1351.65 1231.02 1352.82 1231.02 1353.21 1231.8L1354.77 1233.36C1355.55 1234.14 1356.72 1234.14 1357.5 1233.36L1359.46 1231.8C1360.24 1231.02 1361.41 1231.02 1361.8 1231.8C1362.58 1232.58 1362.58 1233.75 1361.8 1234.14C1361.02 1234.92 1361.02 1234.92 1360.24 1235.71C1359.46 1236.49 1359.46 1237.66 1360.24 1238.44L1361.8 1240C1362.58 1240.78 1362.58 1241.95 1361.8 1242.34C1361.02 1243.13 1359.85 1243.13 1359.46 1242.34L1357.89 1240.78C1357.11 1240 1355.94 1240 1355.16 1240.78L1353.6 1242.34C1352.82 1243.13 1351.65 1243.13 1351.25 1242.34C1350.47 1241.56 1350.47 1240.39 1351.25 1240L1352.82 1238.44C1353.6 1237.66 1353.6 1236.49 1352.82 1235.71L1351.25 1234.14C1350.08 1233.75 1350.08 1232.58 1350.86 1231.8Z" fill="url(#paint2_linear_294_146)"/>
<path fill-rule="evenodd" clip-rule="evenodd" d="M1377.42 1231.8C1378.2 1231.02 1379.37 1231.02 1379.77 1231.8L1381.33 1233.36C1382.11 1234.14 1383.28 1234.14 1384.06 1233.36L1385.62 1231.8C1386.4 1231.02 1387.58 1231.02 1387.97 1231.8C1388.75 1232.58 1388.75 1233.75 1387.97 1234.14C1387.19 1234.92 1387.19 1234.92 1386.4 1235.71C1385.62 1236.49 1385.62 1237.66 1386.4 1238.44L1387.97 1240C1388.75 1240.78 1388.75 1241.95 1387.97 1242.34C1387.19 1243.13 1386.01 1243.13 1385.62 1242.34L1384.06 1240.78C1383.28 1240 1382.11 1240 1381.33 1240.78L1379.77 1242.34C1378.98 1243.13 1377.81 1243.13 1377.42 1242.34C1376.64 1241.56 1376.64 1240.39 1377.42 1240L1378.98 1238.83C1379.77 1238.05 1379.77 1236.88 1378.98 1236.1L1377.42 1234.53C1376.64 1233.75 1376.64 1232.58 1377.42 1231.8Z" fill="url(#paint3_linear_294_146)"/>
<path fill-rule="evenodd" clip-rule="evenodd" d="M1403.59 1231.8C1404.37 1231.02 1405.54 1231.02 1405.93 1231.8L1407.49 1233.36C1408.28 1234.14 1409.45 1234.14 1410.23 1233.36L1411.79 1231.8C1412.57 1231.02 1413.74 1231.02 1414.13 1231.8C1414.91 1232.58 1414.91 1233.75 1414.13 1234.14C1413.35 1234.92 1413.35 1234.92 1412.57 1235.71C1411.79 1236.49 1411.79 1237.66 1412.57 1238.44L1414.13 1240C1414.91 1240.78 1414.91 1241.95 1414.13 1242.34C1413.35 1243.13 1412.18 1243.13 1411.79 1242.34L1410.23 1240.78C1409.45 1240 1408.28 1240 1407.49 1240.78L1406.32 1242.74C1405.54 1243.52 1404.37 1243.52 1403.98 1242.74C1403.2 1241.95 1403.2 1240.78 1403.98 1240.39L1405.54 1238.83C1406.32 1238.05 1406.32 1236.88 1405.54 1236.1L1403.98 1234.53C1403.2 1233.75 1403.2 1232.58 1403.59 1231.8Z" fill="url(#paint4_linear_294_146)"/>
<path fill-rule="evenodd" clip-rule="evenodd" d="M1430.15 1231.8C1430.93 1231.02 1432.1 1231.02 1432.49 1231.8L1434.05 1233.36C1434.83 1234.14 1436 1234.14 1436.79 1233.36L1438.35 1231.8C1439.13 1231.02 1440.3 1231.02 1440.69 1231.8C1441.47 1232.58 1441.47 1233.75 1440.69 1234.14C1439.91 1234.92 1439.91 1234.92 1439.13 1235.71C1438.35 1236.49 1438.35 1237.66 1439.13 1238.44L1440.69 1240C1441.47 1240.78 1441.47 1241.95 1440.69 1242.34C1439.91 1243.13 1438.74 1243.13 1438.35 1242.34L1436.79 1240.78C1436 1240 1434.83 1240 1434.05 1240.78L1432.49 1242.34C1431.71 1243.13 1430.54 1243.13 1430.15 1242.34C1429.36 1241.56 1429.36 1240.39 1430.15 1240L1431.71 1238.44C1432.49 1237.66 1432.49 1236.49 1431.71 1235.71L1430.15 1234.14C1429.36 1233.75 1429.36 1232.58 1430.15 1231.8Z" fill="url(#paint5_linear_294_146)"/>
<path fill-rule="evenodd" clip-rule="evenodd" d="M1456.7 1231.8C1457.48 1231.02 1458.66 1231.02 1459.05 1231.8L1460.61 1233.36C1461.39 1234.14 1462.56 1234.14 1463.34 1233.36L1464.9 1231.8C1465.69 1231.02 1466.86 1231.02 1467.25 1231.8C1468.03 1232.58 1468.03 1233.75 1467.25 1234.14C1466.47 1234.92 1466.47 1234.92 1465.69 1235.71C1464.9 1236.49 1464.9 1237.66 1465.69 1238.44L1467.25 1240C1468.03 1240.78 1468.03 1241.95 1467.25 1242.34C1466.47 1243.13 1465.29 1243.13 1464.9 1242.34L1463.34 1240.78C1462.56 1240 1461.39 1240 1460.61 1240.78L1459.05 1242.34C1458.26 1243.13 1457.09 1243.13 1456.7 1242.34C1455.92 1241.56 1455.92 1240.39 1456.7 1240L1458.26 1238.44C1459.05 1237.66 1459.05 1236.49 1458.26 1235.71L1456.7 1234.14C1455.92 1233.75 1455.92 1232.58 1456.7 1231.8Z" fill="url(#paint6_linear_294_146)"/>
<path fill-rule="evenodd" clip-rule="evenodd" d="M1337.59 1207.59C1338.37 1206.8 1339.54 1206.8 1339.93 1207.59L1341.49 1209.15C1342.27 1209.93 1343.44 1209.93 1344.23 1209.15L1345.79 1207.59C1346.57 1206.8 1347.74 1206.8 1348.13 1207.59C1348.91 1208.37 1348.91 1209.54 1348.13 1209.93C1348.13 1211.1 1347.74 1211.1 1346.96 1211.88C1346.18 1212.66 1346.18 1213.83 1346.96 1214.62L1348.52 1216.18C1349.3 1216.96 1349.3 1218.13 1348.52 1218.52C1347.74 1219.3 1346.57 1219.3 1346.18 1218.52L1344.62 1216.96C1343.84 1216.18 1342.66 1216.18 1341.88 1216.96L1340.32 1218.91C1339.54 1219.69 1338.37 1219.69 1337.98 1218.91C1337.2 1218.13 1337.2 1216.96 1337.98 1216.57L1339.54 1215.01C1340.32 1214.23 1340.32 1213.05 1339.54 1212.27L1337.98 1210.71C1337.2 1209.54 1337.2 1208.37 1337.59 1207.59Z" fill="url(#paint7_linear_294_146)"/>
<path fill-rule="evenodd" clip-rule="evenodd" d="M1364.14 1207.59C1364.93 1206.8 1366.1 1206.8 1366.49 1207.59L1368.05 1209.15C1368.83 1209.93 1370 1209.93 1370.78 1209.15L1372.35 1207.59C1373.52 1207.2 1374.3 1207.2 1375.08 1207.59C1375.86 1208.37 1375.86 1209.54 1375.08 1209.93C1374.3 1211.1 1374.3 1211.1 1373.52 1211.88C1372.74 1212.66 1372.74 1213.83 1373.52 1214.62L1375.08 1216.18C1375.86 1216.96 1375.86 1218.13 1375.08 1218.52C1374.3 1219.3 1373.13 1219.3 1372.74 1218.52L1371.17 1216.96C1370.39 1216.18 1369.22 1216.18 1368.44 1216.96L1366.49 1218.91C1365.71 1219.69 1364.53 1219.69 1364.14 1218.91C1363.36 1218.13 1363.36 1216.96 1364.14 1216.57L1365.71 1215.01C1366.49 1214.23 1366.49 1213.05 1365.71 1212.27L1364.14 1210.71C1363.36 1209.54 1363.36 1208.37 1364.14 1207.59Z" fill="url(#paint8_linear_294_146)"/>
<path fill-rule="evenodd" clip-rule="evenodd" d="M1390.7 1207.59C1391.48 1206.8 1392.65 1206.8 1393.04 1207.59L1394.61 1209.15C1395.39 1209.93 1396.56 1209.93 1397.34 1209.15L1398.9 1207.59C1399.68 1206.8 1400.86 1206.8 1401.25 1207.59C1402.03 1208.37 1402.03 1209.54 1401.25 1209.93C1400.86 1211.1 1400.86 1211.1 1400.07 1211.88C1399.29 1212.66 1399.29 1213.83 1400.07 1214.62L1401.64 1216.18C1402.42 1216.96 1402.42 1218.13 1401.64 1218.91C1400.86 1219.69 1399.68 1219.69 1399.29 1218.91L1397.73 1217.35C1396.95 1216.57 1395.78 1216.57 1395 1217.35L1393.04 1218.91C1392.26 1219.69 1391.09 1219.69 1390.7 1218.91C1389.92 1218.13 1389.92 1216.96 1390.7 1216.57L1392.26 1215.01C1393.04 1214.23 1393.04 1213.05 1392.26 1212.27L1390.7 1210.32C1389.92 1209.54 1389.92 1208.37 1390.7 1207.59Z" fill="url(#paint9_linear_294_146)"/>
<path fill-rule="evenodd" clip-rule="evenodd" d="M1416.87 1207.59C1417.65 1206.8 1418.82 1206.8 1419.21 1207.59L1420.77 1209.15C1421.55 1209.93 1422.73 1209.93 1423.51 1209.15L1425.07 1207.59C1425.85 1206.8 1427.02 1206.8 1427.41 1207.59C1428.19 1208.37 1428.19 1209.54 1427.41 1209.93C1427.41 1211.1 1427.02 1211.1 1426.24 1211.88C1425.46 1212.66 1425.46 1213.83 1426.24 1214.62L1427.8 1216.18C1428.58 1216.96 1428.58 1218.13 1427.8 1218.52C1427.02 1219.3 1425.85 1219.3 1425.46 1218.52L1423.9 1216.96C1423.12 1216.18 1421.94 1216.18 1421.16 1216.96L1419.6 1218.91C1418.82 1219.69 1417.65 1219.69 1417.26 1218.91C1416.48 1218.13 1416.48 1216.96 1417.26 1216.57L1418.82 1215.01C1419.6 1214.23 1419.6 1213.05 1418.82 1212.27L1417.26 1210.71C1416.48 1209.54 1416.48 1208.37 1416.87 1207.59Z" fill="url(#paint10_linear_294_146)"/>
<path fill-rule="evenodd" clip-rule="evenodd" d="M1443.42 1207.59C1444.21 1207.2 1445.38 1207.2 1445.77 1207.59L1447.33 1209.15C1448.11 1209.93 1449.28 1209.93 1450.06 1209.15L1451.63 1207.59C1452.41 1206.8 1453.58 1206.8 1453.97 1207.59C1454.75 1208.37 1454.75 1209.54 1453.97 1209.93C1453.58 1211.1 1453.58 1211.1 1452.8 1211.88C1452.02 1212.66 1452.02 1213.83 1452.8 1214.62L1454.36 1216.18C1455.14 1216.96 1455.14 1218.13 1454.36 1218.52C1453.58 1219.3 1452.41 1219.3 1452.02 1218.52L1450.45 1216.96C1449.67 1216.18 1448.5 1216.18 1447.72 1216.96L1445.77 1218.91C1444.99 1219.69 1443.82 1219.69 1443.42 1218.91C1442.64 1218.13 1442.64 1216.96 1443.42 1216.57L1444.99 1215.01C1445.77 1214.23 1445.77 1213.05 1444.99 1212.27L1443.42 1210.71C1442.64 1209.54 1442.64 1208.37 1443.42 1207.59Z" fill="url(#paint11_linear_294_146)"/>
<path fill-rule="evenodd" clip-rule="evenodd" d="M1469.98 1207.59C1470.76 1206.8 1471.94 1206.8 1472.33 1207.59L1473.89 1209.15C1474.67 1209.93 1475.84 1209.93 1476.62 1209.15L1478.18 1207.59C1478.97 1206.8 1480.14 1206.8 1480.53 1207.59C1481.31 1208.37 1481.31 1209.54 1480.53 1209.93C1480.14 1211.1 1480.14 1211.1 1479.36 1211.88C1478.58 1212.66 1478.58 1213.83 1479.36 1214.62L1480.92 1216.18C1481.7 1216.96 1481.7 1218.13 1480.92 1218.52C1480.14 1219.3 1478.97 1219.3 1478.58 1218.52L1476.62 1216.96C1475.84 1216.18 1474.67 1216.18 1473.89 1216.96L1472.33 1218.91C1471.55 1219.69 1470.37 1219.69 1469.98 1218.91C1469.2 1218.13 1469.2 1216.96 1469.98 1216.57L1471.55 1215.01C1472.33 1214.23 1472.33 1213.05 1471.55 1212.27L1469.98 1210.71C1469.2 1209.54 1469.2 1208.37 1469.98 1207.59Z" fill="url(#paint12_linear_294_146)"/>
<path fill-rule="evenodd" clip-rule="evenodd" d="M1350.86 1280.23C1351.65 1279.45 1352.82 1279.45 1353.21 1280.23L1354.77 1281.79C1355.55 1282.57 1356.72 1282.57 1357.5 1281.79L1359.07 1280.23C1359.85 1279.45 1361.02 1279.45 1361.41 1280.23C1362.19 1281.01 1362.19 1282.18 1361.41 1282.57C1360.63 1283.35 1360.63 1283.35 1359.85 1284.13C1359.07 1284.91 1359.07 1286.09 1359.85 1286.87L1361.41 1288.43C1362.19 1289.21 1362.19 1290.38 1361.41 1290.77C1360.63 1291.55 1359.46 1291.55 1359.07 1290.77L1357.5 1289.21C1356.72 1288.43 1355.55 1288.43 1354.77 1289.21L1353.21 1290.77C1352.43 1291.55 1351.25 1291.55 1350.86 1290.77C1350.08 1289.99 1350.08 1288.82 1350.86 1288.43L1352.43 1286.87C1353.21 1286.09 1353.21 1284.91 1352.43 1284.13L1350.86 1282.57C1350.08 1281.79 1350.08 1280.62 1350.86 1280.23Z" fill="url(#paint13_linear_294_146)"/>
<path fill-rule="evenodd" clip-rule="evenodd" d="M1377.42 1280.23C1378.2 1279.45 1379.37 1279.45 1379.76 1280.23L1381.33 1281.79C1382.11 1282.57 1383.28 1282.57 1384.06 1281.79L1385.62 1280.23C1386.4 1279.45 1387.57 1279.45 1387.97 1280.23C1388.75 1281.01 1388.75 1282.18 1387.97 1282.57C1387.18 1283.35 1387.18 1283.35 1386.4 1284.13C1385.62 1284.91 1385.62 1286.09 1386.4 1286.87L1387.97 1288.43C1388.75 1289.21 1388.75 1290.38 1387.97 1290.77C1387.18 1291.55 1386.01 1291.55 1385.62 1290.77L1384.06 1289.21C1383.28 1288.43 1382.11 1288.43 1381.33 1289.21L1379.76 1290.77C1378.98 1291.55 1377.81 1291.55 1377.42 1290.77C1376.64 1289.99 1376.64 1288.82 1377.42 1288.43L1378.98 1286.87C1379.76 1286.09 1379.76 1284.91 1378.98 1284.13L1377.42 1282.57C1376.64 1281.79 1376.64 1280.62 1377.42 1280.23Z" fill="url(#paint14_linear_294_146)"/>
<path fill-rule="evenodd" clip-rule="evenodd" d="M1403.59 1280.23C1404.37 1279.45 1405.54 1279.45 1405.93 1280.23L1407.49 1281.79C1408.28 1282.57 1409.45 1282.57 1410.23 1281.79L1411.79 1280.23C1412.57 1279.45 1413.74 1279.45 1414.13 1280.23C1414.91 1281.01 1414.91 1282.18 1414.13 1282.57C1413.35 1283.35 1413.35 1283.35 1412.57 1284.13C1411.79 1284.91 1411.79 1286.09 1412.57 1286.87L1414.13 1288.43C1414.91 1289.21 1414.91 1290.38 1414.13 1290.77C1413.35 1291.55 1412.18 1291.55 1411.79 1290.77L1410.23 1289.21C1409.45 1288.43 1408.28 1288.43 1407.49 1289.21L1406.32 1291.16C1405.54 1291.94 1404.37 1291.94 1403.98 1291.16C1403.2 1290.38 1403.2 1289.21 1403.98 1288.82L1405.54 1287.26C1406.32 1286.48 1406.32 1285.3 1405.54 1284.52L1403.98 1282.96C1403.2 1281.79 1403.2 1280.62 1403.59 1280.23Z" fill="url(#paint15_linear_294_146)"/>
<path fill-rule="evenodd" clip-rule="evenodd" d="M1430.14 1280.23C1430.93 1279.45 1432.1 1279.45 1432.49 1280.23L1434.05 1281.79C1434.83 1282.57 1436 1282.57 1436.78 1281.79L1438.35 1280.23C1439.13 1279.45 1440.3 1279.45 1440.69 1280.23C1441.47 1281.01 1441.47 1282.18 1440.69 1282.57C1439.91 1283.35 1439.91 1283.35 1439.13 1284.13C1438.35 1284.91 1438.35 1286.09 1439.13 1286.87L1440.69 1288.43C1441.47 1289.21 1441.47 1290.38 1440.69 1290.77C1439.91 1291.55 1438.74 1291.55 1438.35 1290.77L1436.78 1289.21C1436 1288.43 1434.83 1288.43 1434.05 1289.21L1432.49 1290.77C1431.71 1291.55 1430.53 1291.55 1430.14 1290.77C1429.36 1289.99 1429.36 1288.82 1430.14 1288.43L1431.71 1286.87C1432.49 1286.09 1432.49 1284.91 1431.71 1284.13L1430.14 1282.57C1429.36 1281.79 1429.36 1280.62 1430.14 1280.23Z" fill="url(#paint16_linear_294_146)"/>
<path fill-rule="evenodd" clip-rule="evenodd" d="M1456.7 1280.23C1457.48 1279.45 1458.66 1279.45 1459.05 1280.23L1460.61 1281.79C1461.39 1282.57 1462.56 1282.57 1463.34 1281.79L1464.9 1280.23C1465.69 1279.45 1466.86 1279.45 1467.25 1280.23C1468.03 1281.01 1468.03 1282.18 1467.25 1282.57C1466.47 1283.35 1466.47 1283.35 1465.69 1284.13C1464.9 1284.91 1464.9 1286.09 1465.69 1286.87L1467.25 1288.43C1468.03 1289.21 1468.03 1290.38 1467.25 1290.77C1466.47 1291.55 1465.29 1291.55 1464.9 1290.77L1463.34 1289.21C1462.56 1288.43 1461.39 1288.43 1460.61 1289.21L1459.05 1290.77C1458.26 1291.55 1457.09 1291.55 1456.7 1290.77C1455.92 1289.99 1455.92 1288.82 1456.7 1288.43L1458.26 1286.87C1459.05 1286.09 1459.05 1284.91 1458.26 1284.13L1456.7 1282.57C1455.92 1281.79 1455.92 1280.62 1456.7 1280.23Z" fill="url(#paint17_linear_294_146)"/>
<path fill-rule="evenodd" clip-rule="evenodd" d="M1337.59 1256.01C1338.37 1255.23 1339.54 1255.23 1339.93 1256.01L1341.49 1257.58C1342.27 1258.36 1343.44 1258.36 1344.23 1257.58L1345.79 1256.01C1346.57 1255.23 1347.74 1255.23 1348.13 1256.01C1348.91 1256.8 1348.91 1257.97 1348.13 1258.36C1347.35 1259.14 1347.35 1259.14 1346.57 1259.92C1345.79 1260.7 1345.79 1261.87 1346.57 1262.65L1348.13 1264.22C1348.91 1265 1348.91 1266.17 1348.13 1266.56C1347.35 1267.34 1346.18 1267.34 1345.79 1266.56L1344.23 1265C1343.44 1264.22 1342.27 1264.22 1341.49 1265L1339.93 1266.56C1339.15 1267.34 1337.98 1267.34 1337.59 1266.56C1336.8 1265.78 1336.8 1264.61 1337.59 1264.22L1339.15 1262.65C1339.93 1261.87 1339.93 1260.7 1339.15 1259.92L1337.59 1258.36C1337.2 1257.58 1337.2 1256.8 1337.59 1256.01Z" fill="url(#paint18_linear_294_146)"/>
<path fill-rule="evenodd" clip-rule="evenodd" d="M1364.14 1256.01C1364.92 1255.23 1366.1 1255.23 1366.49 1256.01L1368.05 1257.58C1368.83 1258.36 1370 1258.36 1370.78 1257.58L1372.34 1256.01C1373.13 1255.23 1374.3 1255.23 1374.69 1256.01C1375.47 1256.8 1375.47 1257.97 1374.69 1258.36C1373.91 1259.14 1373.91 1259.14 1373.13 1259.92C1372.34 1260.7 1372.34 1261.87 1373.13 1262.65L1374.69 1264.22C1375.47 1265 1375.47 1266.17 1374.69 1266.56C1373.91 1267.34 1372.74 1267.34 1372.34 1266.56L1371.17 1265.39C1370.39 1264.61 1369.22 1264.61 1368.44 1265.39L1366.88 1266.95C1366.1 1267.73 1364.92 1267.73 1364.53 1266.95C1363.75 1266.17 1363.75 1265 1364.53 1264.61L1366.1 1263.04C1366.88 1262.26 1366.88 1261.09 1366.1 1260.31L1364.53 1258.75C1363.36 1257.58 1363.36 1256.8 1364.14 1256.01Z" fill="url(#paint19_linear_294_146)"/>
<path fill-rule="evenodd" clip-rule="evenodd" d="M1390.7 1256.01C1391.48 1255.23 1392.65 1255.23 1393.04 1256.01L1394.61 1257.58C1395.39 1258.36 1396.56 1258.36 1397.34 1257.58L1398.9 1256.01C1399.68 1255.23 1400.86 1255.23 1401.25 1256.01C1402.03 1256.8 1402.03 1257.97 1401.25 1258.36C1400.46 1259.14 1400.46 1259.14 1399.68 1259.92C1398.9 1260.7 1398.9 1261.87 1399.68 1262.65L1401.25 1264.22C1402.03 1265 1402.03 1266.17 1401.25 1266.56C1400.46 1267.34 1399.29 1267.34 1398.9 1266.56L1397.34 1265C1396.56 1264.22 1395.39 1264.22 1394.61 1265L1393.04 1266.56C1392.26 1267.34 1391.09 1267.34 1390.7 1266.56C1389.92 1265.78 1389.92 1264.61 1390.7 1264.22L1392.26 1262.65C1393.04 1261.87 1393.04 1260.7 1392.26 1259.92L1390.7 1258.36C1389.92 1257.58 1389.92 1256.8 1390.7 1256.01Z" fill="url(#paint20_linear_294_146)"/>
<path fill-rule="evenodd" clip-rule="evenodd" d="M1416.87 1256.01C1417.65 1255.23 1418.82 1255.23 1419.21 1256.01L1420.77 1257.58C1421.55 1258.36 1422.72 1258.36 1423.51 1257.58L1425.07 1256.01C1425.85 1255.23 1427.02 1255.23 1427.41 1256.01C1428.19 1256.8 1428.19 1257.97 1427.41 1258.36C1426.63 1259.14 1426.63 1259.14 1425.85 1259.92C1425.07 1260.7 1425.07 1261.87 1425.85 1262.65L1427.41 1264.22C1428.19 1265 1428.19 1266.17 1427.41 1266.56C1426.63 1267.34 1425.46 1267.34 1425.07 1266.56L1423.51 1265C1422.72 1264.22 1421.55 1264.22 1420.77 1265L1419.21 1266.56C1418.43 1267.34 1417.26 1267.34 1416.87 1266.56C1416.09 1265.78 1416.09 1264.61 1416.87 1264.22L1418.43 1262.65C1419.21 1261.87 1419.21 1260.7 1418.43 1259.92L1416.87 1258.36C1416.48 1257.58 1416.48 1256.8 1416.87 1256.01Z" fill="url(#paint21_linear_294_146)"/>
<path fill-rule="evenodd" clip-rule="evenodd" d="M1443.42 1256.01C1444.21 1255.23 1445.38 1255.23 1445.77 1256.01L1447.33 1257.58C1448.11 1258.36 1449.28 1258.36 1450.06 1257.58L1451.63 1256.01C1452.41 1255.23 1453.58 1255.23 1453.97 1256.01C1454.75 1256.8 1454.75 1257.97 1453.97 1258.36C1453.19 1259.14 1453.19 1259.14 1452.41 1259.92C1451.63 1260.7 1451.63 1261.87 1452.41 1262.65L1453.97 1264.22C1454.75 1265 1454.75 1266.17 1453.97 1266.56C1453.19 1267.34 1452.02 1267.34 1451.63 1266.56L1450.06 1265C1449.28 1264.22 1448.11 1264.22 1447.33 1265L1445.77 1266.56C1444.99 1267.34 1443.82 1267.34 1443.42 1266.56C1442.64 1265.78 1442.64 1264.61 1443.42 1264.22L1444.99 1262.65C1445.77 1261.87 1445.77 1260.7 1444.99 1259.92L1443.42 1258.36C1442.64 1257.58 1442.64 1256.8 1443.42 1256.01Z" fill="url(#paint22_linear_294_146)"/>
<path fill-rule="evenodd" clip-rule="evenodd" d="M1469.98 1256.01C1470.76 1255.23 1471.93 1255.23 1472.32 1256.01L1473.89 1257.58C1474.67 1258.36 1475.84 1258.36 1476.62 1257.58L1478.18 1256.01C1478.96 1255.23 1480.14 1255.23 1480.53 1256.01C1481.31 1256.8 1481.31 1257.97 1480.53 1258.36C1479.75 1259.14 1479.74 1259.14 1478.96 1259.92C1478.18 1260.7 1478.18 1261.87 1478.96 1262.65L1480.53 1264.22C1481.31 1265 1481.31 1266.17 1480.53 1266.56C1479.75 1267.34 1478.57 1267.34 1478.18 1266.56L1476.62 1265.39C1475.84 1264.61 1474.67 1264.61 1473.89 1265.39L1472.32 1266.95C1471.54 1267.73 1470.37 1267.73 1469.98 1266.95C1469.2 1266.17 1469.2 1265 1469.98 1264.61L1471.54 1263.04C1472.32 1262.26 1472.32 1261.09 1471.54 1260.31L1469.98 1258.75C1469.2 1257.58 1469.2 1256.8 1469.98 1256.01Z" fill="url(#paint23_linear_294_146)"/>
<path fill-rule="evenodd" clip-rule="evenodd" d="M1350.86 1328.27C1351.65 1327.48 1352.82 1327.48 1353.21 1328.27L1354.77 1329.83C1355.55 1330.61 1356.72 1330.61 1357.5 1329.83L1359.46 1328.27C1360.24 1327.48 1361.41 1327.48 1361.8 1328.27C1362.58 1329.05 1362.58 1330.22 1361.8 1330.61C1361.02 1331.39 1361.02 1331.39 1360.24 1332.17C1359.46 1332.95 1359.46 1334.12 1360.24 1334.9L1361.8 1336.47C1362.58 1337.25 1362.58 1338.42 1361.8 1338.81C1361.02 1339.59 1359.85 1339.59 1359.46 1338.81L1357.89 1337.25C1357.11 1336.47 1355.94 1336.47 1355.16 1337.25L1353.6 1338.81C1352.82 1339.59 1351.65 1339.59 1351.25 1338.81C1350.47 1338.03 1350.47 1336.86 1351.25 1336.47L1352.82 1334.9C1353.6 1334.12 1353.6 1332.95 1352.82 1332.17L1351.25 1330.61C1350.08 1330.22 1350.08 1329.05 1350.86 1328.27Z" fill="url(#paint24_linear_294_146)"/>
<path fill-rule="evenodd" clip-rule="evenodd" d="M1377.42 1328.27C1378.2 1327.48 1379.37 1327.48 1379.77 1328.27L1381.33 1329.83C1382.11 1330.61 1383.28 1330.61 1384.06 1329.83L1385.62 1328.27C1386.4 1327.48 1387.58 1327.48 1387.97 1328.27C1388.75 1329.05 1388.75 1330.22 1387.97 1330.61C1387.19 1331.39 1387.19 1331.39 1386.4 1332.17C1385.62 1332.95 1385.62 1334.12 1386.4 1334.9L1387.97 1336.47C1388.75 1337.25 1388.75 1338.42 1387.97 1338.81C1387.19 1339.59 1386.01 1339.59 1385.62 1338.81L1384.06 1337.25C1383.28 1336.47 1382.11 1336.47 1381.33 1337.25L1379.77 1338.81C1378.98 1339.59 1377.81 1339.59 1377.42 1338.81C1376.64 1338.03 1376.64 1336.86 1377.42 1336.47L1378.98 1334.9C1379.77 1334.12 1379.77 1332.95 1378.98 1332.17L1377.42 1330.61C1376.64 1330.22 1376.64 1329.05 1377.42 1328.27Z" fill="url(#paint25_linear_294_146)"/>
<path fill-rule="evenodd" clip-rule="evenodd" d="M1403.59 1328.27C1404.37 1327.48 1405.54 1327.48 1405.93 1328.27L1407.49 1329.83C1408.28 1330.61 1409.45 1330.61 1410.23 1329.83L1411.79 1328.27C1412.57 1327.48 1413.74 1327.48 1414.13 1328.27C1414.91 1329.05 1414.91 1330.22 1414.13 1330.61C1413.35 1331.39 1413.35 1331.39 1412.57 1332.17C1411.79 1332.95 1411.79 1334.12 1412.57 1334.9L1414.13 1336.47C1414.91 1337.25 1414.91 1338.42 1414.13 1338.81C1413.35 1339.59 1412.18 1339.59 1411.79 1338.81L1410.23 1337.25C1409.45 1336.47 1408.28 1336.47 1407.49 1337.25L1406.32 1339.2C1405.54 1339.98 1404.37 1339.98 1403.98 1339.2C1403.2 1338.42 1403.2 1337.25 1403.98 1336.86L1405.54 1335.3C1406.32 1334.51 1406.32 1333.34 1405.54 1332.56L1403.98 1331C1403.2 1330.22 1403.2 1329.05 1403.59 1328.27Z" fill="url(#paint26_linear_294_146)"/>
<path fill-rule="evenodd" clip-rule="evenodd" d="M1430.15 1328.27C1430.93 1327.48 1432.1 1327.48 1432.49 1328.27L1434.05 1329.83C1434.83 1330.61 1436 1330.61 1436.79 1329.83L1438.35 1328.27C1439.13 1327.48 1440.3 1327.48 1440.69 1328.27C1441.47 1329.05 1441.47 1330.22 1440.69 1330.61C1439.91 1331.39 1439.91 1331.39 1439.13 1332.17C1438.35 1332.95 1438.35 1334.12 1439.13 1334.9L1440.69 1336.47C1441.47 1337.25 1441.47 1338.42 1440.69 1338.81C1439.91 1339.59 1438.74 1339.59 1438.35 1338.81L1436.79 1337.25C1436 1336.47 1434.83 1336.47 1434.05 1337.25L1432.49 1338.81C1431.71 1339.59 1430.54 1339.59 1430.15 1338.81C1429.36 1338.03 1429.36 1336.86 1430.15 1336.47L1431.71 1334.9C1432.49 1334.12 1432.49 1332.95 1431.71 1332.17L1430.15 1330.61C1429.36 1330.22 1429.36 1329.05 1430.15 1328.27Z" fill="url(#paint27_linear_294_146)"/>
<path fill-rule="evenodd" clip-rule="evenodd" d="M1456.7 1328.27C1457.48 1327.48 1458.66 1327.48 1459.05 1328.27L1460.61 1329.83C1461.39 1330.61 1462.56 1330.61 1463.34 1329.83L1464.9 1328.27C1465.69 1327.48 1466.86 1327.48 1467.25 1328.27C1468.03 1329.05 1468.03 1330.22 1467.25 1330.61C1466.47 1331.39 1466.47 1331.39 1465.69 1332.17C1464.9 1332.95 1464.9 1334.12 1465.69 1334.9L1467.25 1336.47C1468.03 1337.25 1468.03 1338.42 1467.25 1338.81C1466.47 1339.59 1465.29 1339.59 1464.9 1338.81L1463.34 1337.25C1462.56 1336.47 1461.39 1336.47 1460.61 1337.25L1459.05 1338.81C1458.26 1339.59 1457.09 1339.59 1456.7 1338.81C1455.92 1338.03 1455.92 1336.86 1456.7 1336.47L1458.26 1334.9C1459.05 1334.12 1459.05 1332.95 1458.26 1332.17L1456.7 1330.61C1455.92 1330.22 1455.92 1329.05 1456.7 1328.27Z" fill="url(#paint28_linear_294_146)"/>
<path fill-rule="evenodd" clip-rule="evenodd" d="M1337.59 1304.05C1338.37 1303.27 1339.54 1303.27 1339.93 1304.05L1341.49 1305.61C1342.27 1306.39 1343.44 1306.39 1344.23 1305.61L1345.79 1304.05C1346.57 1303.27 1347.74 1303.27 1348.13 1304.05C1348.91 1304.83 1348.91 1306 1348.13 1306.39C1347.35 1307.18 1347.35 1307.18 1346.57 1307.96C1345.79 1308.74 1345.79 1309.91 1346.57 1310.69L1348.13 1312.25C1348.91 1313.03 1348.91 1314.21 1348.13 1314.6C1347.35 1315.38 1346.18 1315.38 1345.79 1314.6L1344.23 1313.03C1343.44 1312.25 1342.27 1312.25 1341.49 1313.03L1339.93 1314.6C1339.15 1315.38 1337.98 1315.38 1337.59 1314.6C1336.8 1313.81 1336.8 1312.64 1337.59 1312.25L1339.15 1310.69C1339.93 1309.91 1339.93 1308.74 1339.15 1307.96L1337.59 1306.39C1337.2 1306 1337.2 1304.83 1337.59 1304.05Z" fill="url(#paint29_linear_294_146)"/>
<path fill-rule="evenodd" clip-rule="evenodd" d="M1364.14 1304.05C1364.92 1303.27 1366.1 1303.27 1366.49 1304.05L1368.05 1305.61C1368.83 1306.39 1370 1306.39 1370.78 1305.61L1372.34 1304.05C1373.13 1303.27 1374.3 1303.27 1374.69 1304.05C1375.47 1304.83 1375.47 1306 1374.69 1306.39C1373.91 1307.18 1373.91 1307.18 1373.13 1307.96C1372.34 1308.74 1372.34 1309.91 1373.13 1310.69L1375.08 1312.64C1375.86 1313.42 1375.86 1314.6 1375.08 1314.99C1374.3 1315.77 1373.13 1315.77 1372.74 1314.99L1371.17 1313.42C1370.39 1312.64 1369.22 1312.64 1368.44 1313.42L1366.88 1314.99C1366.1 1315.77 1364.92 1315.77 1364.53 1314.99C1363.75 1314.21 1363.75 1313.03 1364.53 1312.64L1366.1 1311.08C1366.88 1310.3 1366.88 1309.13 1366.1 1308.35L1364.53 1306.79C1363.36 1306 1363.36 1304.83 1364.14 1304.05Z" fill="url(#paint30_linear_294_146)"/>
<path fill-rule="evenodd" clip-rule="evenodd" d="M1390.7 1304.05C1391.48 1303.27 1392.65 1303.27 1393.04 1304.05L1394.61 1305.61C1395.39 1306.39 1396.56 1306.39 1397.34 1305.61L1398.9 1304.05C1399.68 1303.27 1400.86 1303.27 1401.25 1304.05C1402.03 1304.83 1402.03 1306 1401.25 1306.39C1400.46 1307.18 1400.46 1307.18 1399.68 1307.96C1398.9 1308.74 1398.9 1309.91 1399.68 1310.69L1401.25 1312.25C1402.03 1313.03 1402.03 1314.21 1401.25 1314.6C1400.46 1315.38 1399.29 1315.38 1398.9 1314.6L1397.34 1313.03C1396.56 1312.25 1395.39 1312.25 1394.61 1313.03L1393.04 1314.6C1392.26 1315.38 1391.09 1315.38 1390.7 1314.6C1389.92 1313.81 1389.92 1312.64 1390.7 1312.25L1392.26 1310.69C1393.04 1309.91 1393.04 1308.74 1392.26 1307.96L1390.7 1306.79C1389.92 1306 1389.92 1304.83 1390.7 1304.05Z" fill="url(#paint31_linear_294_146)"/>
<path fill-rule="evenodd" clip-rule="evenodd" d="M1416.87 1304.05C1417.65 1303.27 1418.82 1303.27 1419.21 1304.05L1420.77 1305.61C1421.55 1306.39 1422.72 1306.39 1423.51 1305.61L1425.07 1304.05C1425.85 1303.27 1427.02 1303.27 1427.41 1304.05C1428.19 1304.83 1428.19 1306 1427.41 1306.39C1426.63 1307.18 1426.63 1307.18 1425.85 1307.96C1425.07 1308.74 1425.07 1309.91 1425.85 1310.69L1427.41 1312.25C1428.19 1313.03 1428.19 1314.21 1427.41 1314.6C1426.63 1315.38 1425.46 1315.38 1425.07 1314.6L1423.51 1313.03C1422.72 1312.25 1421.55 1312.25 1420.77 1313.03L1419.21 1314.6C1418.43 1315.38 1417.26 1315.38 1416.87 1314.6C1416.09 1313.81 1416.09 1312.64 1416.87 1312.25L1418.43 1310.69C1419.21 1309.91 1419.21 1308.74 1418.43 1307.96L1416.87 1306.39C1416.48 1306 1416.48 1304.83 1416.87 1304.05Z" fill="url(#paint32_linear_294_146)"/>
<path fill-rule="evenodd" clip-rule="evenodd" d="M1443.42 1304.05C1444.21 1303.27 1445.38 1303.27 1445.77 1304.05L1447.33 1305.61C1448.11 1306.39 1449.28 1306.39 1450.06 1305.61L1451.63 1304.05C1452.41 1303.27 1453.58 1303.27 1453.97 1304.05C1454.75 1304.83 1454.75 1306 1453.97 1306.39C1453.19 1307.18 1453.19 1307.18 1452.41 1307.96C1451.63 1308.74 1451.63 1309.91 1452.41 1310.69L1453.97 1312.25C1454.75 1313.03 1454.75 1314.21 1453.97 1314.6C1453.19 1315.38 1452.02 1315.38 1451.63 1314.6L1450.06 1313.03C1449.28 1312.25 1448.11 1312.25 1447.33 1313.03L1445.77 1314.6C1444.99 1315.38 1443.82 1315.38 1443.42 1314.6C1442.64 1313.81 1442.64 1312.64 1443.42 1312.25L1444.99 1310.69C1445.77 1309.91 1445.77 1308.74 1444.99 1307.96L1443.42 1306.39C1442.64 1306 1442.64 1304.83 1443.42 1304.05Z" fill="url(#paint33_linear_294_146)"/>
<path fill-rule="evenodd" clip-rule="evenodd" d="M1469.98 1304.05C1470.76 1303.27 1471.93 1303.27 1472.32 1304.05L1473.89 1305.61C1474.67 1306.39 1475.84 1306.39 1476.62 1305.61L1478.18 1304.05C1478.96 1303.27 1480.14 1303.27 1480.53 1304.05C1481.31 1304.83 1481.31 1306 1480.53 1306.39C1479.75 1307.18 1479.74 1307.18 1478.96 1307.96C1478.18 1308.74 1478.18 1309.91 1478.96 1310.69L1480.53 1312.25C1481.31 1313.03 1481.31 1314.21 1480.53 1314.6C1479.75 1315.38 1478.57 1315.38 1478.18 1314.6L1476.62 1313.42C1475.84 1312.64 1474.67 1312.64 1473.89 1313.42L1472.32 1314.99C1471.54 1315.77 1470.37 1315.77 1469.98 1314.99C1469.2 1314.21 1469.2 1313.03 1469.98 1312.64L1471.54 1311.08C1472.32 1310.3 1472.32 1309.13 1471.54 1308.35L1469.98 1306.79C1469.2 1306 1469.2 1304.83 1469.98 1304.05Z" fill="url(#paint34_linear_294_146)"/>
<path fill-rule="evenodd" clip-rule="evenodd" d="M1337.59 1352.48C1338.37 1351.7 1339.54 1351.7 1339.93 1352.48L1341.49 1354.04C1342.27 1354.82 1343.44 1354.82 1344.23 1354.04L1345.79 1352.48C1346.57 1351.7 1347.74 1351.7 1348.13 1352.48C1348.91 1353.26 1348.91 1354.43 1348.13 1354.82C1348.13 1355.6 1347.74 1355.6 1346.96 1356.38C1346.18 1357.17 1346.18 1358.34 1346.96 1359.12L1348.52 1360.68C1349.3 1361.46 1349.3 1362.63 1348.52 1363.02C1347.74 1363.8 1346.57 1363.8 1346.18 1363.02L1344.62 1361.46C1343.84 1360.68 1342.66 1360.68 1341.88 1361.46L1340.32 1363.41C1339.54 1364.2 1338.37 1364.2 1337.98 1363.41C1337.2 1362.63 1337.2 1361.46 1337.98 1361.07L1339.54 1359.51C1340.32 1358.73 1340.32 1357.56 1339.54 1356.78L1337.98 1355.21C1337.2 1354.04 1337.2 1353.26 1337.59 1352.48Z" fill="url(#paint35_linear_294_146)"/>
<path fill-rule="evenodd" clip-rule="evenodd" d="M1364.14 1352.48C1364.93 1351.7 1366.1 1351.7 1366.49 1352.48L1368.05 1354.04C1368.83 1354.82 1370 1354.82 1370.78 1354.04L1372.35 1352.48C1373.13 1351.7 1374.3 1351.7 1374.69 1352.48C1375.47 1353.26 1375.47 1354.43 1374.69 1354.82C1373.91 1355.6 1373.91 1355.6 1373.13 1356.38C1372.35 1357.17 1372.35 1358.34 1373.13 1359.12L1374.69 1360.68C1375.47 1361.46 1375.47 1362.63 1374.69 1363.02C1373.91 1363.8 1372.74 1363.8 1372.35 1363.02L1371.17 1361.85C1370.39 1361.07 1369.22 1361.07 1368.44 1361.85L1366.49 1363.41C1365.71 1364.2 1364.53 1364.2 1364.14 1363.41C1363.36 1362.63 1363.36 1361.46 1364.14 1361.07L1365.71 1359.51C1366.49 1358.73 1366.49 1357.56 1365.71 1356.78L1364.14 1355.21C1363.36 1354.04 1363.36 1353.26 1364.14 1352.48Z" fill="url(#paint36_linear_294_146)"/>
<path fill-rule="evenodd" clip-rule="evenodd" d="M1390.7 1352.48C1391.48 1351.7 1392.65 1351.7 1393.04 1352.48L1394.61 1354.04C1395.39 1354.82 1396.56 1354.82 1397.34 1354.04L1398.9 1352.48C1399.68 1351.7 1400.86 1351.7 1401.25 1352.48C1402.03 1353.26 1402.03 1354.43 1401.25 1354.82C1400.46 1355.6 1400.46 1355.6 1399.68 1356.38C1398.9 1357.17 1398.9 1358.34 1399.68 1359.12L1401.25 1360.68C1402.03 1361.46 1402.03 1362.63 1401.25 1363.02C1400.46 1363.8 1399.29 1363.8 1398.9 1363.02L1397.34 1361.46C1396.56 1360.68 1395.39 1360.68 1394.61 1361.46L1393.04 1363.41C1392.26 1364.2 1391.09 1364.2 1390.7 1363.41C1389.92 1362.63 1389.92 1361.46 1390.7 1361.07L1392.26 1359.51C1393.04 1358.73 1393.04 1357.56 1392.26 1356.78L1390.7 1354.82C1389.92 1354.04 1389.92 1353.26 1390.7 1352.48Z" fill="url(#paint37_linear_294_146)"/>
<path fill-rule="evenodd" clip-rule="evenodd" d="M1416.87 1352.48C1417.65 1351.7 1418.82 1351.7 1419.21 1352.48L1420.77 1354.04C1421.55 1354.82 1422.73 1354.82 1423.51 1354.04L1425.07 1352.48C1425.85 1351.7 1427.02 1351.7 1427.41 1352.48C1428.19 1353.26 1428.19 1354.43 1427.41 1354.82C1426.63 1355.6 1426.63 1355.6 1425.85 1356.38C1425.07 1357.17 1425.07 1358.34 1425.85 1359.12L1427.41 1360.68C1428.19 1361.46 1428.19 1362.63 1427.41 1363.02C1426.63 1363.8 1425.46 1363.8 1425.07 1363.02L1423.51 1361.46C1422.73 1360.68 1421.55 1360.68 1420.77 1361.46L1419.6 1363.41C1418.82 1364.2 1417.65 1364.2 1417.26 1363.41C1416.48 1362.63 1416.48 1361.46 1417.26 1361.07L1418.82 1359.51C1419.6 1358.73 1419.6 1357.56 1418.82 1356.78L1417.26 1355.21C1416.48 1354.04 1416.48 1353.26 1416.87 1352.48Z" fill="url(#paint38_linear_294_146)"/>
<path fill-rule="evenodd" clip-rule="evenodd" d="M1443.42 1352.48C1444.21 1351.7 1445.38 1351.7 1445.77 1352.48L1447.33 1354.04C1448.11 1354.82 1449.28 1354.82 1450.06 1354.04L1451.63 1352.48C1452.41 1351.7 1453.58 1351.7 1453.97 1352.48C1454.75 1353.26 1454.75 1354.43 1453.97 1354.82C1453.19 1355.6 1453.19 1355.6 1452.41 1356.38C1451.63 1357.17 1451.63 1358.34 1452.41 1359.12L1453.97 1360.68C1454.75 1361.46 1454.75 1362.63 1453.97 1363.02C1453.19 1363.8 1452.02 1363.8 1451.63 1363.02L1450.06 1361.46C1449.28 1360.68 1448.11 1360.68 1447.33 1361.46L1445.77 1363.41C1444.99 1364.2 1443.82 1364.2 1443.42 1363.41C1442.64 1362.63 1442.64 1361.46 1443.42 1361.07L1444.99 1359.51C1445.77 1358.73 1445.77 1357.56 1444.99 1356.78L1443.42 1355.21C1442.64 1354.04 1442.64 1353.26 1443.42 1352.48Z" fill="url(#paint39_linear_294_146)"/>
<path fill-rule="evenodd" clip-rule="evenodd" d="M1469.98 1352.48C1470.76 1351.7 1471.94 1351.7 1472.33 1352.48L1473.89 1354.04C1474.67 1354.82 1475.84 1354.82 1476.62 1354.04L1478.18 1352.48C1478.97 1351.7 1480.14 1351.7 1480.53 1352.48C1481.31 1353.26 1481.31 1354.43 1480.53 1354.82C1479.75 1355.6 1479.75 1355.6 1478.97 1356.38C1478.18 1357.17 1478.18 1358.34 1478.97 1359.12L1480.53 1360.68C1481.31 1361.46 1481.31 1362.63 1480.53 1363.02C1479.75 1363.8 1478.58 1363.8 1478.18 1363.02L1476.62 1361.85C1475.84 1361.07 1474.67 1361.07 1473.89 1361.85L1472.33 1363.41C1471.55 1364.2 1470.37 1364.2 1469.98 1363.41C1469.2 1362.63 1469.2 1361.46 1469.98 1361.07L1471.55 1359.51C1472.33 1358.73 1472.33 1357.56 1471.55 1356.78L1469.98 1355.21C1469.2 1354.04 1469.2 1353.26 1469.98 1352.48Z" fill="url(#paint40_linear_294_146)"/>
</g>
<path opacity="0.5" d="M1485 1140C1493.84 1140 1501 1132.84 1501 1124C1501 1115.16 1493.84 1108 1485 1108C1476.16 1108 1469 1115.16 1469 1124C1469 1132.84 1476.16 1140 1485 1140Z" fill="url(#paint41_linear_294_146)"/>
<g opacity="0.5">
<path d="M101.748 790.034L87.732 772.776C86.9004 771.726 85.2108 771.836 83.835 772.86L69.2877 783.994L60.2622 773.034C59.4305 771.985 57.741 772.095 56.3652 773.118L41.8178 784.252L33.0513 773.361C32.2196 772.311 30.5301 772.421 29.1543 773.444L14.6069 784.579L5.9764 773.169C5.07672 772.378 3.19624 772.161 2.07942 773.252L-21.0494 790.718C-22.4251 791.742 -22.8332 793.296 -22.0015 794.346L-18.225 798.94C-17.3933 799.99 -15.7037 799.88 -14.328 798.856L0.151372 787.981L8.91793 798.873C9.36777 799.268 10.0765 799.731 10.6624 799.608C11.5072 799.553 12.093 799.43 12.8149 798.789L27.2943 787.914L36.0608 798.806C36.5107 799.201 37.2194 799.664 37.8053 799.541C38.6501 799.486 39.2359 799.363 39.9578 798.722L54.4372 787.847L63.2037 798.738C63.6536 799.134 64.3623 799.597 64.9482 799.474C65.793 799.419 66.3788 799.296 67.1007 798.655L81.5801 787.78L90.7416 798.221C91.5732 799.271 93.2628 799.161 94.6386 798.137L100.795 793.662C101.912 792.57 102.32 791.015 101.748 790.034Z" fill="url(#paint42_radial_294_146)"/>
</g>
<path opacity="0.5" d="M1417 309C1425.84 309 1433 301.837 1433 293C1433 284.164 1425.84 277 1417 277C1408.16 277 1401 284.164 1401 293C1401 301.837 1408.16 309 1417 309Z" fill="url(#paint43_linear_294_146)"/>
<path opacity="0.5" d="M1459 198C1463.97 198 1468 193.971 1468 189C1468 184.029 1463.97 180 1459 180C1454.03 180 1450 184.029 1450 189C1450 193.971 1454.03 198 1459 198Z" fill="url(#paint44_linear_294_146)"/>
<g opacity="0.5">
<path d="M149.376 0.609706L135.583 14.4028C134.806 15.1799 134.806 16.5398 135.583 17.3168L149.376 31.1099C150.153 31.887 151.513 31.887 152.29 31.1099L155.981 27.4188C156.758 26.6417 156.758 25.2818 155.981 24.5048L147.239 15.7627L155.981 7.02058C156.758 6.2435 156.758 4.88362 155.981 4.10655L152.29 0.415441C151.513 -0.167365 150.153 -0.167369 149.376 0.609706Z" fill="url(#paint45_linear_294_146)"/>
<path d="M169.192 0.609706L155.399 14.4028C154.622 15.1799 154.622 16.5398 155.399 17.3168L169.192 31.1099C169.969 31.887 171.329 31.887 172.106 31.1099L175.797 27.4188C176.574 26.6417 176.574 25.2818 175.797 24.5048L167.055 15.7627L175.797 7.02058C176.574 6.2435 176.574 4.88362 175.797 4.10655L172.106 0.415441C171.329 -0.167365 169.969 -0.167369 169.192 0.609706Z" fill="url(#paint46_linear_294_146)"/>
<path d="M188.812 0.609706L175.019 14.4028C174.242 15.1799 174.242 16.5398 175.019 17.3168L188.812 31.1099C189.589 31.887 190.949 31.887 191.726 31.1099L195.417 27.4188C196.194 26.6417 196.194 25.2818 195.417 24.5048L186.675 15.7627L195.417 7.02058C196.194 6.2435 196.194 4.88362 195.417 4.10655L191.726 0.415441C190.949 -0.167365 189.589 -0.167369 188.812 0.609706Z" fill="url(#paint47_linear_294_146)"/>
</g>
<defs>
<linearGradient id="paint0_linear_294_146" x1="122" y1="1291.5" x2="215" y2="1291.5" gradientUnits="userSpaceOnUse">
<stop stop-color="#6A11CB"/>
<stop offset="1" stop-color="#2575FC"/>
</linearGradient>
<linearGradient id="paint1_linear_294_146" x1="239.986" y1="1321.52" x2="255.032" y2="1331.49" gradientUnits="userSpaceOnUse">
<stop stop-color="#C72A16"/>
<stop offset="0.998" stop-color="#BA2244"/>
</linearGradient>
<linearGradient id="paint2_linear_294_146" x1="1352.08" y1="1232.93" x2="1360.36" y2="1241.46" gradientUnits="userSpaceOnUse">
<stop stop-color="#FF9100"/>
<stop offset="1" stop-color="#FF4D00"/>
</linearGradient>
<linearGradient id="paint3_linear_294_146" x1="1378.55" y1="1232.93" x2="1386.83" y2="1241.22" gradientUnits="userSpaceOnUse">
<stop stop-color="#FF9100"/>
<stop offset="1" stop-color="#FF4D00"/>
</linearGradient>
<linearGradient id="paint4_linear_294_146" x1="1405" y1="1232.99" x2="1413.54" y2="1241.03" gradientUnits="userSpaceOnUse">
<stop stop-color="#FF9100"/>
<stop offset="1" stop-color="#FF4D00"/>
</linearGradient>
<linearGradient id="paint5_linear_294_146" x1="1431.27" y1="1232.93" x2="1439.55" y2="1241.22" gradientUnits="userSpaceOnUse">
<stop stop-color="#FF9100"/>
<stop offset="1" stop-color="#FF4D00"/>
</linearGradient>
<linearGradient id="paint6_linear_294_146" x1="1457.83" y1="1232.93" x2="1466.11" y2="1241.22" gradientUnits="userSpaceOnUse">
<stop stop-color="#FF9100"/>
<stop offset="1" stop-color="#FF4D00"/>
</linearGradient>
<linearGradient id="paint7_linear_294_146" x1="1339.05" y1="1208.84" x2="1347.87" y2="1217.15" gradientUnits="userSpaceOnUse">
<stop stop-color="#FF9100"/>
<stop offset="1" stop-color="#FF4D00"/>
</linearGradient>
<linearGradient id="paint8_linear_294_146" x1="1365.33" y1="1208.84" x2="1374.16" y2="1217.39" gradientUnits="userSpaceOnUse">
<stop stop-color="#FF9100"/>
<stop offset="1" stop-color="#FF4D00"/>
</linearGradient>
<linearGradient id="paint9_linear_294_146" x1="1391.88" y1="1208.84" x2="1400.71" y2="1217.39" gradientUnits="userSpaceOnUse">
<stop stop-color="#FF9100"/>
<stop offset="1" stop-color="#FF4D00"/>
</linearGradient>
<linearGradient id="paint10_linear_294_146" x1="1418.33" y1="1208.84" x2="1427.15" y2="1217.15" gradientUnits="userSpaceOnUse">
<stop stop-color="#FF9100"/>
<stop offset="1" stop-color="#FF4D00"/>
</linearGradient>
<linearGradient id="paint11_linear_294_146" x1="1444.61" y1="1208.84" x2="1453.44" y2="1217.39" gradientUnits="userSpaceOnUse">
<stop stop-color="#FF9100"/>
<stop offset="1" stop-color="#FF4D00"/>
</linearGradient>
<linearGradient id="paint12_linear_294_146" x1="1471.17" y1="1208.84" x2="1480" y2="1217.39" gradientUnits="userSpaceOnUse">
<stop stop-color="#FF9100"/>
<stop offset="1" stop-color="#FF4D00"/>
</linearGradient>
<linearGradient id="paint13_linear_294_146" x1="1351.99" y1="1281.36" x2="1360.27" y2="1289.64" gradientUnits="userSpaceOnUse">
<stop stop-color="#FF9100"/>
<stop offset="1" stop-color="#FF4D00"/>
</linearGradient>
<linearGradient id="paint14_linear_294_146" x1="1378.55" y1="1281.36" x2="1386.83" y2="1289.64" gradientUnits="userSpaceOnUse">
<stop stop-color="#FF9100"/>
<stop offset="1" stop-color="#FF4D00"/>
</linearGradient>
<linearGradient id="paint15_linear_294_146" x1="1405" y1="1281.42" x2="1413.54" y2="1289.45" gradientUnits="userSpaceOnUse">
<stop stop-color="#FF9100"/>
<stop offset="1" stop-color="#FF4D00"/>
</linearGradient>
<linearGradient id="paint16_linear_294_146" x1="1431.27" y1="1281.36" x2="1439.55" y2="1289.64" gradientUnits="userSpaceOnUse">
<stop stop-color="#FF9100"/>
<stop offset="1" stop-color="#FF4D00"/>
</linearGradient>
<linearGradient id="paint17_linear_294_146" x1="1457.83" y1="1281.36" x2="1466.11" y2="1289.64" gradientUnits="userSpaceOnUse">
<stop stop-color="#FF9100"/>
<stop offset="1" stop-color="#FF4D00"/>
</linearGradient>
<linearGradient id="paint18_linear_294_146" x1="1338.71" y1="1257.15" x2="1346.99" y2="1265.43" gradientUnits="userSpaceOnUse">
<stop stop-color="#FF9100"/>
<stop offset="1" stop-color="#FF4D00"/>
</linearGradient>
<linearGradient id="paint19_linear_294_146" x1="1365.3" y1="1257.21" x2="1373.86" y2="1265.45" gradientUnits="userSpaceOnUse">
<stop stop-color="#FF9100"/>
<stop offset="1" stop-color="#FF4D00"/>
</linearGradient>
<linearGradient id="paint20_linear_294_146" x1="1391.83" y1="1257.15" x2="1400.11" y2="1265.43" gradientUnits="userSpaceOnUse">
<stop stop-color="#FF9100"/>
<stop offset="1" stop-color="#FF4D00"/>
</linearGradient>
<linearGradient id="paint21_linear_294_146" x1="1417.99" y1="1257.15" x2="1426.27" y2="1265.43" gradientUnits="userSpaceOnUse">
<stop stop-color="#FF9100"/>
<stop offset="1" stop-color="#FF4D00"/>
</linearGradient>
<linearGradient id="paint22_linear_294_146" x1="1444.55" y1="1257.15" x2="1452.83" y2="1265.43" gradientUnits="userSpaceOnUse">
<stop stop-color="#FF9100"/>
<stop offset="1" stop-color="#FF4D00"/>
</linearGradient>
<linearGradient id="paint23_linear_294_146" x1="1471.11" y1="1257.21" x2="1479.66" y2="1265.48" gradientUnits="userSpaceOnUse">
<stop stop-color="#FF9100"/>
<stop offset="1" stop-color="#FF4D00"/>
</linearGradient>
<linearGradient id="paint24_linear_294_146" x1="1352.08" y1="1329.4" x2="1360.36" y2="1337.92" gradientUnits="userSpaceOnUse">
<stop stop-color="#FF9100"/>
<stop offset="1" stop-color="#FF4D00"/>
</linearGradient>
<linearGradient id="paint25_linear_294_146" x1="1378.55" y1="1329.4" x2="1386.83" y2="1337.68" gradientUnits="userSpaceOnUse">
<stop stop-color="#FF9100"/>
<stop offset="1" stop-color="#FF4D00"/>
</linearGradient>
<linearGradient id="paint26_linear_294_146" x1="1405" y1="1329.46" x2="1413.54" y2="1337.49" gradientUnits="userSpaceOnUse">
<stop stop-color="#FF9100"/>
<stop offset="1" stop-color="#FF4D00"/>
</linearGradient>
<linearGradient id="paint27_linear_294_146" x1="1431.27" y1="1329.4" x2="1439.55" y2="1337.68" gradientUnits="userSpaceOnUse">
<stop stop-color="#FF9100"/>
<stop offset="1" stop-color="#FF4D00"/>
</linearGradient>
<linearGradient id="paint28_linear_294_146" x1="1457.83" y1="1329.4" x2="1466.11" y2="1337.68" gradientUnits="userSpaceOnUse">
<stop stop-color="#FF9100"/>
<stop offset="1" stop-color="#FF4D00"/>
</linearGradient>
<linearGradient id="paint29_linear_294_146" x1="1338.71" y1="1305.19" x2="1346.99" y2="1313.47" gradientUnits="userSpaceOnUse">
<stop stop-color="#FF9100"/>
<stop offset="1" stop-color="#FF4D00"/>
</linearGradient>
<linearGradient id="paint30_linear_294_146" x1="1365.36" y1="1305.24" x2="1373.92" y2="1313.77" gradientUnits="userSpaceOnUse">
<stop stop-color="#FF9100"/>
<stop offset="1" stop-color="#FF4D00"/>
</linearGradient>
<linearGradient id="paint31_linear_294_146" x1="1391.83" y1="1305.19" x2="1400.11" y2="1313.47" gradientUnits="userSpaceOnUse">
<stop stop-color="#FF9100"/>
<stop offset="1" stop-color="#FF4D00"/>
</linearGradient>
<linearGradient id="paint32_linear_294_146" x1="1417.99" y1="1305.19" x2="1426.27" y2="1313.47" gradientUnits="userSpaceOnUse">
<stop stop-color="#FF9100"/>
<stop offset="1" stop-color="#FF4D00"/>
</linearGradient>
<linearGradient id="paint33_linear_294_146" x1="1444.55" y1="1305.19" x2="1452.83" y2="1313.47" gradientUnits="userSpaceOnUse">
<stop stop-color="#FF9100"/>
<stop offset="1" stop-color="#FF4D00"/>
</linearGradient>
<linearGradient id="paint34_linear_294_146" x1="1471.11" y1="1305.24" x2="1479.66" y2="1313.52" gradientUnits="userSpaceOnUse">
<stop stop-color="#FF9100"/>
<stop offset="1" stop-color="#FF4D00"/>
</linearGradient>
<linearGradient id="paint35_linear_294_146" x1="1339.05" y1="1353.67" x2="1347.6" y2="1361.99" gradientUnits="userSpaceOnUse">
<stop stop-color="#FF9100"/>
<stop offset="1" stop-color="#FF4D00"/>
</linearGradient>
<linearGradient id="paint36_linear_294_146" x1="1365.27" y1="1353.67" x2="1373.82" y2="1361.95" gradientUnits="userSpaceOnUse">
<stop stop-color="#FF9100"/>
<stop offset="1" stop-color="#FF4D00"/>
</linearGradient>
<linearGradient id="paint37_linear_294_146" x1="1391.83" y1="1353.67" x2="1400.38" y2="1361.95" gradientUnits="userSpaceOnUse">
<stop stop-color="#FF9100"/>
<stop offset="1" stop-color="#FF4D00"/>
</linearGradient>
<linearGradient id="paint38_linear_294_146" x1="1418.27" y1="1353.67" x2="1426.82" y2="1361.71" gradientUnits="userSpaceOnUse">
<stop stop-color="#FF9100"/>
<stop offset="1" stop-color="#FF4D00"/>
</linearGradient>
<linearGradient id="paint39_linear_294_146" x1="1444.55" y1="1353.67" x2="1453.1" y2="1361.95" gradientUnits="userSpaceOnUse">
<stop stop-color="#FF9100"/>
<stop offset="1" stop-color="#FF4D00"/>
</linearGradient>
<linearGradient id="paint40_linear_294_146" x1="1471.11" y1="1353.67" x2="1479.66" y2="1361.95" gradientUnits="userSpaceOnUse">
<stop stop-color="#FF9100"/>
<stop offset="1" stop-color="#FF4D00"/>
</linearGradient>
<linearGradient id="paint41_linear_294_146" x1="1484.97" y1="1139.91" x2="1484.97" y2="1107.98" gradientUnits="userSpaceOnUse">
<stop stop-color="#FFD328"/>
<stop offset="1" stop-color="#FFA700"/>
</linearGradient>
<radialGradient id="paint42_radial_294_146" cx="0" cy="0" r="1" gradientUnits="userSpaceOnUse" gradientTransform="translate(42.3973 773.826) rotate(14.7282) scale(47.492 41.6655)">
<stop stop-color="#5B2AA4"/>
<stop offset="0.9944" stop-color="#481A72"/>
</radialGradient>
<linearGradient id="paint43_linear_294_146" x1="1401" y1="292.99" x2="1433" y2="292.99" gradientUnits="userSpaceOnUse">
<stop stop-color="#C72A16"/>
<stop offset="0.998" stop-color="#BA2244"/>
</linearGradient>
<linearGradient id="paint44_linear_294_146" x1="1450" y1="189" x2="1468" y2="189" gradientUnits="userSpaceOnUse">
<stop stop-color="#6A11CB"/>
<stop offset="1" stop-color="#2575FC"/>
</linearGradient>
<linearGradient id="paint45_linear_294_146" x1="142.557" y1="24.1807" x2="159.19" y2="7.54763" gradientUnits="userSpaceOnUse">
<stop stop-color="#FF9100"/>
<stop offset="1" stop-color="#FF4D00"/>
</linearGradient>
<linearGradient id="paint46_linear_294_146" x1="162.283" y1="24.1807" x2="178.916" y2="7.54763" gradientUnits="userSpaceOnUse">
<stop stop-color="#FF9100"/>
<stop offset="1" stop-color="#FF4D00"/>
</linearGradient>
<linearGradient id="paint47_linear_294_146" x1="182.008" y1="24.1805" x2="198.641" y2="7.54782" gradientUnits="userSpaceOnUse">
<stop stop-color="#FF9100"/>
<stop offset="1" stop-color="#FF4D00"/>
</linearGradient>
</defs>
</svg>
