<svg width="1501" height="1364" viewBox="0 0 1501 1364" fill="none" xmlns="http://www.w3.org/2000/svg"><path opacity=".5" d="M168.5 1245c-25.714 0-46.5 20.79-46.5 46.5s20.786 46.5 46.5 46.5 46.5-20.79 46.5-46.5-20.94-46.5-46.5-46.5zm0 83.61c-20.478 0-36.954-16.63-36.954-36.96 0-20.47 16.63-36.95 36.954-36.95 20.479 0 36.954 16.63 36.954 36.95 0 20.33-16.629 36.96-36.954 36.96z" fill="url(#paint0_linear_294_146)"/><path opacity=".5" d="M255.625 1328.22l-4.004-2.65 2.572-3.89a1.3 1.3 0 00-.368-1.81l-2.669-1.77a1.304 1.304 0 00-1.816.37l-2.653 4-4.004-2.65a1.303 1.303 0 00-1.815.37l-1.768 2.67c-.402.6-.239 1.41.368 1.81l4.004 2.66-2.653 4c-.402.61-.238 1.41.369 1.81l2.669 1.77c.606.41 1.413.24 1.815-.37l2.814-4.24 4.004 2.65c.606.4 1.413.24 1.815-.37l1.688-2.55c.281-.68.238-1.41-.368-1.81z" fill="url(#paint1_linear_294_146)"/><g opacity=".5" fill-rule="evenodd" clip-rule="evenodd"><path d="M1350.86 1231.8c.79-.78 1.96-.78 2.35 0l1.56 1.56c.78.78 1.95.78 2.73 0l1.96-1.56c.78-.78 1.95-.78 2.34 0 .78.78.78 1.95 0 2.34-.78.78-.78.78-1.56 1.57-.78.78-.78 1.95 0 2.73l1.56 1.56c.78.78.78 1.95 0 2.34-.78.79-1.95.79-2.34 0l-1.57-1.56c-.78-.78-1.95-.78-2.73 0l-1.56 1.56c-.78.79-1.95.79-2.35 0-.78-.78-.78-1.95 0-2.34l1.57-1.56c.78-.78.78-1.95 0-2.73l-1.57-1.57c-1.17-.39-1.17-1.56-.39-2.34z" fill="url(#paint2_linear_294_146)"/><path d="M1377.42 1231.8c.78-.78 1.95-.78 2.35 0l1.56 1.56c.78.78 1.95.78 2.73 0l1.56-1.56c.78-.78 1.96-.78 2.35 0 .78.78.78 1.95 0 2.34l-1.57 1.57c-.78.78-.78 1.95 0 2.73l1.57 1.56c.78.78.78 1.95 0 2.34-.78.79-1.96.79-2.35 0l-1.56-1.56c-.78-.78-1.95-.78-2.73 0l-1.56 1.56c-.79.79-1.96.79-2.35 0-.78-.78-.78-1.95 0-2.34l1.56-1.17c.79-.78.79-1.95 0-2.73l-1.56-1.57c-.78-.78-.78-1.95 0-2.73z" fill="url(#paint3_linear_294_146)"/><path d="M1403.59 1231.8c.78-.78 1.95-.78 2.34 0l1.56 1.56c.79.78 1.96.78 2.74 0l1.56-1.56c.78-.78 1.95-.78 2.34 0 .78.78.78 1.95 0 2.34-.78.78-.78.78-1.56 1.57-.78.78-.78 1.95 0 2.73l1.56 1.56c.78.78.78 1.95 0 2.34-.78.79-1.95.79-2.34 0l-1.56-1.56c-.78-.78-1.95-.78-2.74 0l-1.17 1.96c-.78.78-1.95.78-2.34 0-.78-.79-.78-1.96 0-2.35l1.56-1.56c.78-.78.78-1.95 0-2.73l-1.56-1.57c-.78-.78-.78-1.95-.39-2.73z" fill="url(#paint4_linear_294_146)"/><path d="M1430.15 1231.8c.78-.78 1.95-.78 2.34 0l1.56 1.56c.78.78 1.95.78 2.74 0l1.56-1.56c.78-.78 1.95-.78 2.34 0 .78.78.78 1.95 0 2.34-.78.78-.78.78-1.56 1.57-.78.78-.78 1.95 0 2.73l1.56 1.56c.78.78.78 1.95 0 2.34-.78.79-1.95.79-2.34 0l-1.56-1.56c-.79-.78-1.96-.78-2.74 0l-1.56 1.56c-.78.79-1.95.79-2.34 0-.79-.78-.79-1.95 0-2.34l1.56-1.56c.78-.78.78-1.95 0-2.73l-1.56-1.57c-.79-.39-.79-1.56 0-2.34z" fill="url(#paint5_linear_294_146)"/><path d="M1456.7 1231.8c.78-.78 1.96-.78 2.35 0l1.56 1.56c.78.78 1.95.78 2.73 0l1.56-1.56c.79-.78 1.96-.78 2.35 0 .78.78.78 1.95 0 2.34-.78.78-.78.78-1.56 1.57-.79.78-.79 1.95 0 2.73l1.56 1.56c.78.78.78 1.95 0 2.34-.78.79-1.96.79-2.35 0l-1.56-1.56c-.78-.78-1.95-.78-2.73 0l-1.56 1.56c-.79.79-1.96.79-2.35 0-.78-.78-.78-1.95 0-2.34l1.56-1.56c.79-.78.79-1.95 0-2.73l-1.56-1.57c-.78-.39-.78-1.56 0-2.34z" fill="url(#paint6_linear_294_146)"/><path d="M1337.59 1207.59c.78-.79 1.95-.79 2.34 0l1.56 1.56c.78.78 1.95.78 2.74 0l1.56-1.56c.78-.79 1.95-.79 2.34 0 .78.78.78 1.95 0 2.34 0 1.17-.39 1.17-1.17 1.95-.78.78-.78 1.95 0 2.74l1.56 1.56c.78.78.78 1.95 0 2.34-.78.78-1.95.78-2.34 0l-1.56-1.56c-.78-.78-1.96-.78-2.74 0l-1.56 1.95c-.78.78-1.95.78-2.34 0-.78-.78-.78-1.95 0-2.34l1.56-1.56c.78-.78.78-1.96 0-2.74l-1.56-1.56c-.78-1.17-.78-2.34-.39-3.12z" fill="url(#paint7_linear_294_146)"/><path d="M1364.14 1207.59c.79-.79 1.96-.79 2.35 0l1.56 1.56c.78.78 1.95.78 2.73 0l1.57-1.56c1.17-.39 1.95-.39 2.73 0 .78.78.78 1.95 0 2.34-.78 1.17-.78 1.17-1.56 1.95s-.78 1.95 0 2.74l1.56 1.56c.78.78.78 1.95 0 2.34-.78.78-1.95.78-2.34 0l-1.57-1.56c-.78-.78-1.95-.78-2.73 0l-1.95 1.95c-.78.78-1.96.78-2.35 0-.78-.78-.78-1.95 0-2.34l1.57-1.56c.78-.78.78-1.96 0-2.74l-1.57-1.56c-.78-1.17-.78-2.34 0-3.12z" fill="url(#paint8_linear_294_146)"/><path d="M1390.7 1207.59c.78-.79 1.95-.79 2.34 0l1.57 1.56c.78.78 1.95.78 2.73 0l1.56-1.56c.78-.79 1.96-.79 2.35 0 .78.78.78 1.95 0 2.34-.39 1.17-.39 1.17-1.18 1.95-.78.78-.78 1.95 0 2.74l1.57 1.56c.78.78.78 1.95 0 2.73s-1.96.78-2.35 0l-1.56-1.56c-.78-.78-1.95-.78-2.73 0l-1.96 1.56c-.78.78-1.95.78-2.34 0-.78-.78-.78-1.95 0-2.34l1.56-1.56c.78-.78.78-1.96 0-2.74l-1.56-1.95c-.78-.78-.78-1.95 0-2.73z" fill="url(#paint9_linear_294_146)"/><path d="M1416.87 1207.59c.78-.79 1.95-.79 2.34 0l1.56 1.56c.78.78 1.96.78 2.74 0l1.56-1.56c.78-.79 1.95-.79 2.34 0 .78.78.78 1.95 0 2.34 0 1.17-.39 1.17-1.17 1.95-.78.78-.78 1.95 0 2.74l1.56 1.56c.78.78.78 1.95 0 2.34-.78.78-1.95.78-2.34 0l-1.56-1.56c-.78-.78-1.96-.78-2.74 0l-1.56 1.95c-.78.78-1.95.78-2.34 0-.78-.78-.78-1.95 0-2.34l1.56-1.56c.78-.78.78-1.96 0-2.74l-1.56-1.56c-.78-1.17-.78-2.34-.39-3.12z" fill="url(#paint10_linear_294_146)"/><path d="M1443.42 1207.59c.79-.39 1.96-.39 2.35 0l1.56 1.56c.78.78 1.95.78 2.73 0l1.57-1.56c.78-.79 1.95-.79 2.34 0 .78.78.78 1.95 0 2.34-.39 1.17-.39 1.17-1.17 1.95-.78.78-.78 1.95 0 2.74l1.56 1.56c.78.78.78 1.95 0 2.34-.78.78-1.95.78-2.34 0l-1.57-1.56c-.78-.78-1.95-.78-2.73 0l-1.95 1.95c-.78.78-1.95.78-2.35 0-.78-.78-.78-1.95 0-2.34l1.57-1.56c.78-.78.78-1.96 0-2.74l-1.57-1.56c-.78-1.17-.78-2.34 0-3.12z" fill="url(#paint11_linear_294_146)"/><path d="M1469.98 1207.59c.78-.79 1.96-.79 2.35 0l1.56 1.56c.78.78 1.95.78 2.73 0l1.56-1.56c.79-.79 1.96-.79 2.35 0 .78.78.78 1.95 0 2.34-.39 1.17-.39 1.17-1.17 1.95-.78.78-.78 1.95 0 2.74l1.56 1.56c.78.78.78 1.95 0 2.34-.78.78-1.95.78-2.34 0l-1.96-1.56c-.78-.78-1.95-.78-2.73 0l-1.56 1.95c-.78.78-1.96.78-2.35 0-.78-.78-.78-1.95 0-2.34l1.57-1.56c.78-.78.78-1.96 0-2.74l-1.57-1.56c-.78-1.17-.78-2.34 0-3.12z" fill="url(#paint12_linear_294_146)"/><path d="M1350.86 1280.23c.79-.78 1.96-.78 2.35 0l1.56 1.56c.78.78 1.95.78 2.73 0l1.57-1.56c.78-.78 1.95-.78 2.34 0 .78.78.78 1.95 0 2.34l-1.56 1.56c-.78.78-.78 1.96 0 2.74l1.56 1.56c.78.78.78 1.95 0 2.34-.78.78-1.95.78-2.34 0l-1.57-1.56c-.78-.78-1.95-.78-2.73 0l-1.56 1.56c-.78.78-1.96.78-2.35 0-.78-.78-.78-1.95 0-2.34l1.57-1.56c.78-.78.78-1.96 0-2.74l-1.57-1.56c-.78-.78-.78-1.95 0-2.34z" fill="url(#paint13_linear_294_146)"/><path d="M1377.42 1280.23c.78-.78 1.95-.78 2.34 0l1.57 1.56c.78.78 1.95.78 2.73 0l1.56-1.56c.78-.78 1.95-.78 2.35 0 .78.78.78 1.95 0 2.34-.79.78-.79.78-1.57 1.56s-.78 1.96 0 2.74l1.57 1.56c.78.78.78 1.95 0 2.34-.79.78-1.96.78-2.35 0l-1.56-1.56c-.78-.78-1.95-.78-2.73 0l-1.57 1.56c-.78.78-1.95.78-2.34 0-.78-.78-.78-1.95 0-2.34l1.56-1.56c.78-.78.78-1.96 0-2.74l-1.56-1.56c-.78-.78-.78-1.95 0-2.34z" fill="url(#paint14_linear_294_146)"/><path d="M1403.59 1280.23c.78-.78 1.95-.78 2.34 0l1.56 1.56c.79.78 1.96.78 2.74 0l1.56-1.56c.78-.78 1.95-.78 2.34 0 .78.78.78 1.95 0 2.34l-1.56 1.56c-.78.78-.78 1.96 0 2.74l1.56 1.56c.78.78.78 1.95 0 2.34-.78.78-1.95.78-2.34 0l-1.56-1.56c-.78-.78-1.95-.78-2.74 0l-1.17 1.95c-.78.78-1.95.78-2.34 0-.78-.78-.78-1.95 0-2.34l1.56-1.56c.78-.78.78-1.96 0-2.74l-1.56-1.56c-.78-1.17-.78-2.34-.39-2.73z" fill="url(#paint15_linear_294_146)"/><path d="M1430.14 1280.23c.79-.78 1.96-.78 2.35 0l1.56 1.56c.78.78 1.95.78 2.73 0l1.57-1.56c.78-.78 1.95-.78 2.34 0 .78.78.78 1.95 0 2.34l-1.56 1.56c-.78.78-.78 1.96 0 2.74l1.56 1.56c.78.78.78 1.95 0 2.34-.78.78-1.95.78-2.34 0l-1.57-1.56c-.78-.78-1.95-.78-2.73 0l-1.56 1.56c-.78.78-1.96.78-2.35 0-.78-.78-.78-1.95 0-2.34l1.57-1.56c.78-.78.78-1.96 0-2.74l-1.57-1.56c-.78-.78-.78-1.95 0-2.34z" fill="url(#paint16_linear_294_146)"/><path d="M1456.7 1280.23c.78-.78 1.96-.78 2.35 0l1.56 1.56c.78.78 1.95.78 2.73 0l1.56-1.56c.79-.78 1.96-.78 2.35 0 .78.78.78 1.95 0 2.34l-1.56 1.56c-.79.78-.79 1.96 0 2.74l1.56 1.56c.78.78.78 1.95 0 2.34-.78.78-1.96.78-2.35 0l-1.56-1.56c-.78-.78-1.95-.78-2.73 0l-1.56 1.56c-.79.78-1.96.78-2.35 0-.78-.78-.78-1.95 0-2.34l1.56-1.56c.79-.78.79-1.96 0-2.74l-1.56-1.56c-.78-.78-.78-1.95 0-2.34z" fill="url(#paint17_linear_294_146)"/><path d="M1337.59 1256.01c.78-.78 1.95-.78 2.34 0l1.56 1.57c.78.78 1.95.78 2.74 0l1.56-1.57c.78-.78 1.95-.78 2.34 0 .78.79.78 1.96 0 2.35l-1.56 1.56c-.78.78-.78 1.95 0 2.73l1.56 1.57c.78.78.78 1.95 0 2.34-.78.78-1.95.78-2.34 0l-1.56-1.56c-.79-.78-1.96-.78-2.74 0l-1.56 1.56c-.78.78-1.95.78-2.34 0-.79-.78-.79-1.95 0-2.34l1.56-1.57c.78-.78.78-1.95 0-2.73l-1.56-1.56c-.39-.78-.39-1.56 0-2.35z" fill="url(#paint18_linear_294_146)"/><path d="M1364.14 1256.01c.78-.78 1.96-.78 2.35 0l1.56 1.57c.78.78 1.95.78 2.73 0l1.56-1.57c.79-.78 1.96-.78 2.35 0 .78.79.78 1.96 0 2.35l-1.56 1.56c-.79.78-.79 1.95 0 2.73l1.56 1.57c.78.78.78 1.95 0 2.34-.78.78-1.95.78-2.35 0l-1.17-1.17c-.78-.78-1.95-.78-2.73 0l-1.56 1.56c-.78.78-1.96.78-2.35 0-.78-.78-.78-1.95 0-2.34l1.57-1.57c.78-.78.78-1.95 0-2.73l-1.57-1.56c-1.17-1.17-1.17-1.95-.39-2.74z" fill="url(#paint19_linear_294_146)"/><path d="M1390.7 1256.01c.78-.78 1.95-.78 2.34 0l1.57 1.57c.78.78 1.95.78 2.73 0l1.56-1.57c.78-.78 1.96-.78 2.35 0 .78.79.78 1.96 0 2.35-.79.78-.79.78-1.57 1.56s-.78 1.95 0 2.73l1.57 1.57c.78.78.78 1.95 0 2.34-.79.78-1.96.78-2.35 0l-1.56-1.56c-.78-.78-1.95-.78-2.73 0l-1.57 1.56c-.78.78-1.95.78-2.34 0-.78-.78-.78-1.95 0-2.34l1.56-1.57c.78-.78.78-1.95 0-2.73l-1.56-1.56c-.78-.78-.78-1.56 0-2.35z" fill="url(#paint20_linear_294_146)"/><path d="M1416.87 1256.01c.78-.78 1.95-.78 2.34 0l1.56 1.57c.78.78 1.95.78 2.74 0l1.56-1.57c.78-.78 1.95-.78 2.34 0 .78.79.78 1.96 0 2.35l-1.56 1.56c-.78.78-.78 1.95 0 2.73l1.56 1.57c.78.78.78 1.95 0 2.34-.78.78-1.95.78-2.34 0l-1.56-1.56c-.79-.78-1.96-.78-2.74 0l-1.56 1.56c-.78.78-1.95.78-2.34 0-.78-.78-.78-1.95 0-2.34l1.56-1.57c.78-.78.78-1.95 0-2.73l-1.56-1.56c-.39-.78-.39-1.56 0-2.35z" fill="url(#paint21_linear_294_146)"/><path d="M1443.42 1256.01c.79-.78 1.96-.78 2.35 0l1.56 1.57c.78.78 1.95.78 2.73 0l1.57-1.57c.78-.78 1.95-.78 2.34 0 .78.79.78 1.96 0 2.35l-1.56 1.56c-.78.78-.78 1.95 0 2.73l1.56 1.57c.78.78.78 1.95 0 2.34-.78.78-1.95.78-2.34 0l-1.57-1.56c-.78-.78-1.95-.78-2.73 0l-1.56 1.56c-.78.78-1.95.78-2.35 0-.78-.78-.78-1.95 0-2.34l1.57-1.57c.78-.78.78-1.95 0-2.73l-1.57-1.56c-.78-.78-.78-1.56 0-2.35z" fill="url(#paint22_linear_294_146)"/><path d="M1469.98 1256.01c.78-.78 1.95-.78 2.34 0l1.57 1.57c.78.78 1.95.78 2.73 0l1.56-1.57c.78-.78 1.96-.78 2.35 0 .78.79.78 1.96 0 2.35-.78.78-.79.78-1.57 1.56s-.78 1.95 0 2.73l1.57 1.57c.78.78.78 1.95 0 2.34-.78.78-1.96.78-2.35 0l-1.56-1.17c-.78-.78-1.95-.78-2.73 0l-1.57 1.56c-.78.78-1.95.78-2.34 0-.78-.78-.78-1.95 0-2.34l1.56-1.57c.78-.78.78-1.95 0-2.73l-1.56-1.56c-.78-1.17-.78-1.95 0-2.74z" fill="url(#paint23_linear_294_146)"/><path d="M1350.86 1328.27c.79-.79 1.96-.79 2.35 0l1.56 1.56c.78.78 1.95.78 2.73 0l1.96-1.56c.78-.79 1.95-.79 2.34 0 .78.78.78 1.95 0 2.34l-1.56 1.56c-.78.78-.78 1.95 0 2.73l1.56 1.57c.78.78.78 1.95 0 2.34-.78.78-1.95.78-2.34 0l-1.57-1.56c-.78-.78-1.95-.78-2.73 0l-1.56 1.56c-.78.78-1.95.78-2.35 0-.78-.78-.78-1.95 0-2.34l1.57-1.57c.78-.78.78-1.95 0-2.73l-1.57-1.56c-1.17-.39-1.17-1.56-.39-2.34z" fill="url(#paint24_linear_294_146)"/><path d="M1377.42 1328.27c.78-.79 1.95-.79 2.35 0l1.56 1.56c.78.78 1.95.78 2.73 0l1.56-1.56c.78-.79 1.96-.79 2.35 0 .78.78.78 1.95 0 2.34-.78.78-.78.78-1.57 1.56-.78.78-.78 1.95 0 2.73l1.57 1.57c.78.78.78 1.95 0 2.34-.78.78-1.96.78-2.35 0l-1.56-1.56c-.78-.78-1.95-.78-2.73 0l-1.56 1.56c-.79.78-1.96.78-2.35 0-.78-.78-.78-1.95 0-2.34l1.56-1.57c.79-.78.79-1.95 0-2.73l-1.56-1.56c-.78-.39-.78-1.56 0-2.34z" fill="url(#paint25_linear_294_146)"/><path d="M1403.59 1328.27c.78-.79 1.95-.79 2.34 0l1.56 1.56c.79.78 1.96.78 2.74 0l1.56-1.56c.78-.79 1.95-.79 2.34 0 .78.78.78 1.95 0 2.34l-1.56 1.56c-.78.78-.78 1.95 0 2.73l1.56 1.57c.78.78.78 1.95 0 2.34-.78.78-1.95.78-2.34 0l-1.56-1.56c-.78-.78-1.95-.78-2.74 0l-1.17 1.95c-.78.78-1.95.78-2.34 0-.78-.78-.78-1.95 0-2.34l1.56-1.56c.78-.79.78-1.96 0-2.74l-1.56-1.56c-.78-.78-.78-1.95-.39-2.73z" fill="url(#paint26_linear_294_146)"/><path d="M1430.15 1328.27c.78-.79 1.95-.79 2.34 0l1.56 1.56c.78.78 1.95.78 2.74 0l1.56-1.56c.78-.79 1.95-.79 2.34 0 .78.78.78 1.95 0 2.34l-1.56 1.56c-.78.78-.78 1.95 0 2.73l1.56 1.57c.78.78.78 1.95 0 2.34-.78.78-1.95.78-2.34 0l-1.56-1.56c-.79-.78-1.96-.78-2.74 0l-1.56 1.56c-.78.78-1.95.78-2.34 0-.79-.78-.79-1.95 0-2.34l1.56-1.57c.78-.78.78-1.95 0-2.73l-1.56-1.56c-.79-.39-.79-1.56 0-2.34z" fill="url(#paint27_linear_294_146)"/><path d="M1456.7 1328.27c.78-.79 1.96-.79 2.35 0l1.56 1.56c.78.78 1.95.78 2.73 0l1.56-1.56c.79-.79 1.96-.79 2.35 0 .78.78.78 1.95 0 2.34l-1.56 1.56c-.79.78-.79 1.95 0 2.73l1.56 1.57c.78.78.78 1.95 0 2.34-.78.78-1.96.78-2.35 0l-1.56-1.56c-.78-.78-1.95-.78-2.73 0l-1.56 1.56c-.79.78-1.96.78-2.35 0-.78-.78-.78-1.95 0-2.34l1.56-1.57c.79-.78.79-1.95 0-2.73l-1.56-1.56c-.78-.39-.78-1.56 0-2.34z" fill="url(#paint28_linear_294_146)"/><path d="M1337.59 1304.05c.78-.78 1.95-.78 2.34 0l1.56 1.56c.78.78 1.95.78 2.74 0l1.56-1.56c.78-.78 1.95-.78 2.34 0 .78.78.78 1.95 0 2.34-.78.79-.78.79-1.56 1.57s-.78 1.95 0 2.73l1.56 1.56c.78.78.78 1.96 0 2.35-.78.78-1.95.78-2.34 0l-1.56-1.57c-.79-.78-1.96-.78-2.74 0l-1.56 1.57c-.78.78-1.95.78-2.34 0-.79-.79-.79-1.96 0-2.35l1.56-1.56c.78-.78.78-1.95 0-2.73l-1.56-1.57c-.39-.39-.39-1.56 0-2.34z" fill="url(#paint29_linear_294_146)"/><path d="M1364.14 1304.05c.78-.78 1.96-.78 2.35 0l1.56 1.56c.78.78 1.95.78 2.73 0l1.56-1.56c.79-.78 1.96-.78 2.35 0 .78.78.78 1.95 0 2.34-.78.79-.78.79-1.56 1.57-.79.78-.79 1.95 0 2.73l1.95 1.95c.78.78.78 1.96 0 2.35-.78.78-1.95.78-2.34 0l-1.57-1.57c-.78-.78-1.95-.78-2.73 0l-1.56 1.57c-.78.78-1.96.78-2.35 0-.78-.78-.78-1.96 0-2.35l1.57-1.56c.78-.78.78-1.95 0-2.73l-1.57-1.56c-1.17-.79-1.17-1.96-.39-2.74z" fill="url(#paint30_linear_294_146)"/><path d="M1390.7 1304.05c.78-.78 1.95-.78 2.34 0l1.57 1.56c.78.78 1.95.78 2.73 0l1.56-1.56c.78-.78 1.96-.78 2.35 0 .78.78.78 1.95 0 2.34l-1.57 1.57c-.78.78-.78 1.95 0 2.73l1.57 1.56c.78.78.78 1.96 0 2.35-.79.78-1.96.78-2.35 0l-1.56-1.57c-.78-.78-1.95-.78-2.73 0l-1.57 1.57c-.78.78-1.95.78-2.34 0-.78-.79-.78-1.96 0-2.35l1.56-1.56c.78-.78.78-1.95 0-2.73l-1.56-1.17c-.78-.79-.78-1.96 0-2.74z" fill="url(#paint31_linear_294_146)"/><path d="M1416.87 1304.05c.78-.78 1.95-.78 2.34 0l1.56 1.56c.78.78 1.95.78 2.74 0l1.56-1.56c.78-.78 1.95-.78 2.34 0 .78.78.78 1.95 0 2.34-.78.79-.78.79-1.56 1.57s-.78 1.95 0 2.73l1.56 1.56c.78.78.78 1.96 0 2.35-.78.78-1.95.78-2.34 0l-1.56-1.57c-.79-.78-1.96-.78-2.74 0l-1.56 1.57c-.78.78-1.95.78-2.34 0-.78-.79-.78-1.96 0-2.35l1.56-1.56c.78-.78.78-1.95 0-2.73l-1.56-1.57c-.39-.39-.39-1.56 0-2.34z" fill="url(#paint32_linear_294_146)"/><path d="M1443.42 1304.05c.79-.78 1.96-.78 2.35 0l1.56 1.56c.78.78 1.95.78 2.73 0l1.57-1.56c.78-.78 1.95-.78 2.34 0 .78.78.78 1.95 0 2.34-.78.79-.78.79-1.56 1.57s-.78 1.95 0 2.73l1.56 1.56c.78.78.78 1.96 0 2.35-.78.78-1.95.78-2.34 0l-1.57-1.57c-.78-.78-1.95-.78-2.73 0l-1.56 1.57c-.78.78-1.95.78-2.35 0-.78-.79-.78-1.96 0-2.35l1.57-1.56c.78-.78.78-1.95 0-2.73l-1.57-1.57c-.78-.39-.78-1.56 0-2.34z" fill="url(#paint33_linear_294_146)"/><path d="M1469.98 1304.05c.78-.78 1.95-.78 2.34 0l1.57 1.56c.78.78 1.95.78 2.73 0l1.56-1.56c.78-.78 1.96-.78 2.35 0 .78.78.78 1.95 0 2.34-.78.79-.79.79-1.57 1.57s-.78 1.95 0 2.73l1.57 1.56c.78.78.78 1.96 0 2.35-.78.78-1.96.78-2.35 0l-1.56-1.18c-.78-.78-1.95-.78-2.73 0l-1.57 1.57c-.78.78-1.95.78-2.34 0-.78-.78-.78-1.96 0-2.35l1.56-1.56c.78-.78.78-1.95 0-2.73l-1.56-1.56c-.78-.79-.78-1.96 0-2.74z" fill="url(#paint34_linear_294_146)"/><path d="M1337.59 1352.48c.78-.78 1.95-.78 2.34 0l1.56 1.56c.78.78 1.95.78 2.74 0l1.56-1.56c.78-.78 1.95-.78 2.34 0 .78.78.78 1.95 0 2.34 0 .78-.39.78-1.17 1.56-.78.79-.78 1.96 0 2.74l1.56 1.56c.78.78.78 1.95 0 2.34-.78.78-1.95.78-2.34 0l-1.56-1.56c-.78-.78-1.96-.78-2.74 0l-1.56 1.95c-.78.79-1.95.79-2.34 0-.78-.78-.78-1.95 0-2.34l1.56-1.56c.78-.78.78-1.95 0-2.73l-1.56-1.57c-.78-1.17-.78-1.95-.39-2.73z" fill="url(#paint35_linear_294_146)"/><path d="M1364.14 1352.48c.79-.78 1.96-.78 2.35 0l1.56 1.56c.78.78 1.95.78 2.73 0l1.57-1.56c.78-.78 1.95-.78 2.34 0 .78.78.78 1.95 0 2.34l-1.56 1.56c-.78.79-.78 1.96 0 2.74l1.56 1.56c.78.78.78 1.95 0 2.34-.78.78-1.95.78-2.34 0l-1.18-1.17c-.78-.78-1.95-.78-2.73 0l-1.95 1.56c-.78.79-1.96.79-2.35 0-.78-.78-.78-1.95 0-2.34l1.57-1.56c.78-.78.78-1.95 0-2.73l-1.57-1.57c-.78-1.17-.78-1.95 0-2.73z" fill="url(#paint36_linear_294_146)"/><path d="M1390.7 1352.48c.78-.78 1.95-.78 2.34 0l1.57 1.56c.78.78 1.95.78 2.73 0l1.56-1.56c.78-.78 1.96-.78 2.35 0 .78.78.78 1.95 0 2.34-.79.78-.79.78-1.57 1.56-.78.79-.78 1.96 0 2.74l1.57 1.56c.78.78.78 1.95 0 2.34-.79.78-1.96.78-2.35 0l-1.56-1.56c-.78-.78-1.95-.78-2.73 0l-1.57 1.95c-.78.79-1.95.79-2.34 0-.78-.78-.78-1.95 0-2.34l1.56-1.56c.78-.78.78-1.95 0-2.73l-1.56-1.96c-.78-.78-.78-1.56 0-2.34z" fill="url(#paint37_linear_294_146)"/><path d="M1416.87 1352.48c.78-.78 1.95-.78 2.34 0l1.56 1.56c.78.78 1.96.78 2.74 0l1.56-1.56c.78-.78 1.95-.78 2.34 0 .78.78.78 1.95 0 2.34l-1.56 1.56c-.78.79-.78 1.96 0 2.74l1.56 1.56c.78.78.78 1.95 0 2.34-.78.78-1.95.78-2.34 0l-1.56-1.56c-.78-.78-1.96-.78-2.74 0l-1.17 1.95c-.78.79-1.95.79-2.34 0-.78-.78-.78-1.95 0-2.34l1.56-1.56c.78-.78.78-1.95 0-2.73l-1.56-1.57c-.78-1.17-.78-1.95-.39-2.73z" fill="url(#paint38_linear_294_146)"/><path d="M1443.42 1352.48c.79-.78 1.96-.78 2.35 0l1.56 1.56c.78.78 1.95.78 2.73 0l1.57-1.56c.78-.78 1.95-.78 2.34 0 .78.78.78 1.95 0 2.34l-1.56 1.56c-.78.79-.78 1.96 0 2.74l1.56 1.56c.78.78.78 1.95 0 2.34-.78.78-1.95.78-2.34 0l-1.57-1.56c-.78-.78-1.95-.78-2.73 0l-1.56 1.95c-.78.79-1.95.79-2.35 0-.78-.78-.78-1.95 0-2.34l1.57-1.56c.78-.78.78-1.95 0-2.73l-1.57-1.57c-.78-1.17-.78-1.95 0-2.73z" fill="url(#paint39_linear_294_146)"/><path d="M1469.98 1352.48c.78-.78 1.96-.78 2.35 0l1.56 1.56c.78.78 1.95.78 2.73 0l1.56-1.56c.79-.78 1.96-.78 2.35 0 .78.78.78 1.95 0 2.34l-1.56 1.56c-.79.79-.79 1.96 0 2.74l1.56 1.56c.78.78.78 1.95 0 2.34-.78.78-1.95.78-2.35 0l-1.56-1.17c-.78-.78-1.95-.78-2.73 0l-1.56 1.56c-.78.79-1.96.79-2.35 0-.78-.78-.78-1.95 0-2.34l1.57-1.56c.78-.78.78-1.95 0-2.73l-1.57-1.57c-.78-1.17-.78-1.95 0-2.73z" fill="url(#paint40_linear_294_146)"/></g><path opacity=".5" d="M1485 1140c8.84 0 16-7.16 16-16s-7.16-16-16-16-16 7.16-16 16 7.16 16 16 16z" fill="url(#paint41_linear_294_146)"/><path d="M101.748 790.034l-14.016-17.258c-.832-1.05-2.521-.94-3.897.084l-14.547 11.134-9.026-10.96c-.831-1.049-2.521-.939-3.897.084l-14.547 11.134-8.767-10.891c-.831-1.05-2.52-.94-3.897.083l-14.547 11.135-8.63-11.41c-.9-.791-2.78-1.008-3.898.083l-23.128 17.466c-1.376 1.024-1.784 2.578-.953 3.628l3.777 4.594c.832 1.05 2.521.94 3.897-.084l14.48-10.875 8.766 10.892c.45.395 1.159.858 1.744.735.845-.055 1.431-.178 2.153-.819l14.48-10.875 8.766 10.892c.45.395 1.158.858 1.744.735.845-.055 1.43-.178 2.153-.819l14.48-10.875 8.766 10.891c.45.396 1.158.859 1.744.736.845-.055 1.43-.178 2.153-.819l14.48-10.875 9.16 10.441c.832 1.05 2.522.94 3.898-.084l6.156-4.475c1.117-1.092 1.525-2.647.953-3.628z" fill="url(#paint42_radial_294_146)" opacity=".5"/><path opacity=".5" d="M1417 309c8.84 0 16-7.163 16-16 0-8.836-7.16-16-16-16s-16 7.164-16 16c0 8.837 7.16 16 16 16z" fill="url(#paint43_linear_294_146)"/><path opacity=".5" d="M1459 198a9 9 0 100-18 9 9 0 000 18z" fill="url(#paint44_linear_294_146)"/><g opacity=".5"><path d="M149.376.61l-13.793 13.793c-.777.777-.777 2.137 0 2.914l13.793 13.793c.777.777 2.137.777 2.914 0l3.691-3.691c.777-.777.777-2.137 0-2.914l-8.742-8.742 8.742-8.742c.777-.777.777-2.137 0-2.914L152.29.415c-.777-.582-2.137-.582-2.914.195z" fill="url(#paint45_linear_294_146)"/><path d="M169.192.61l-13.793 13.793c-.777.777-.777 2.137 0 2.914l13.793 13.793c.777.777 2.137.777 2.914 0l3.691-3.691c.777-.777.777-2.137 0-2.914l-8.742-8.742 8.742-8.742c.777-.777.777-2.137 0-2.914L172.106.415c-.777-.582-2.137-.582-2.914.195z" fill="url(#paint46_linear_294_146)"/><path d="M188.812.61l-13.793 13.793c-.777.777-.777 2.137 0 2.914l13.793 13.793c.777.777 2.137.777 2.914 0l3.691-3.691c.777-.777.777-2.137 0-2.914l-8.742-8.742 8.742-8.742c.777-.777.777-2.137 0-2.914L191.726.415c-.777-.582-2.137-.582-2.914.195z" fill="url(#paint47_linear_294_146)"/></g><defs><linearGradient id="paint0_linear_294_146" x1="122" y1="1291.5" x2="215" y2="1291.5" gradientUnits="userSpaceOnUse"><stop stop-color="#6A11CB"/><stop offset="1" stop-color="#2575FC"/></linearGradient><linearGradient id="paint1_linear_294_146" x1="239.986" y1="1321.52" x2="255.032" y2="1331.49" gradientUnits="userSpaceOnUse"><stop stop-color="#C72A16"/><stop offset=".998" stop-color="#BA2244"/></linearGradient><linearGradient id="paint2_linear_294_146" x1="1352.08" y1="1232.93" x2="1360.36" y2="1241.46" gradientUnits="userSpaceOnUse"><stop stop-color="#FF9100"/><stop offset="1" stop-color="#FF4D00"/></linearGradient><linearGradient id="paint3_linear_294_146" x1="1378.55" y1="1232.93" x2="1386.83" y2="1241.22" gradientUnits="userSpaceOnUse"><stop stop-color="#FF9100"/><stop offset="1" stop-color="#FF4D00"/></linearGradient><linearGradient id="paint4_linear_294_146" x1="1405" y1="1232.99" x2="1413.54" y2="1241.03" gradientUnits="userSpaceOnUse"><stop stop-color="#FF9100"/><stop offset="1" stop-color="#FF4D00"/></linearGradient><linearGradient id="paint5_linear_294_146" x1="1431.27" y1="1232.93" x2="1439.55" y2="1241.22" gradientUnits="userSpaceOnUse"><stop stop-color="#FF9100"/><stop offset="1" stop-color="#FF4D00"/></linearGradient><linearGradient id="paint6_linear_294_146" x1="1457.83" y1="1232.93" x2="1466.11" y2="1241.22" gradientUnits="userSpaceOnUse"><stop stop-color="#FF9100"/><stop offset="1" stop-color="#FF4D00"/></linearGradient><linearGradient id="paint7_linear_294_146" x1="1339.05" y1="1208.84" x2="1347.87" y2="1217.15" gradientUnits="userSpaceOnUse"><stop stop-color="#FF9100"/><stop offset="1" stop-color="#FF4D00"/></linearGradient><linearGradient id="paint8_linear_294_146" x1="1365.33" y1="1208.84" x2="1374.16" y2="1217.39" gradientUnits="userSpaceOnUse"><stop stop-color="#FF9100"/><stop offset="1" stop-color="#FF4D00"/></linearGradient><linearGradient id="paint9_linear_294_146" x1="1391.88" y1="1208.84" x2="1400.71" y2="1217.39" gradientUnits="userSpaceOnUse"><stop stop-color="#FF9100"/><stop offset="1" stop-color="#FF4D00"/></linearGradient><linearGradient id="paint10_linear_294_146" x1="1418.33" y1="1208.84" x2="1427.15" y2="1217.15" gradientUnits="userSpaceOnUse"><stop stop-color="#FF9100"/><stop offset="1" stop-color="#FF4D00"/></linearGradient><linearGradient id="paint11_linear_294_146" x1="1444.61" y1="1208.84" x2="1453.44" y2="1217.39" gradientUnits="userSpaceOnUse"><stop stop-color="#FF9100"/><stop offset="1" stop-color="#FF4D00"/></linearGradient><linearGradient id="paint12_linear_294_146" x1="1471.17" y1="1208.84" x2="1480" y2="1217.39" gradientUnits="userSpaceOnUse"><stop stop-color="#FF9100"/><stop offset="1" stop-color="#FF4D00"/></linearGradient><linearGradient id="paint13_linear_294_146" x1="1351.99" y1="1281.36" x2="1360.27" y2="1289.64" gradientUnits="userSpaceOnUse"><stop stop-color="#FF9100"/><stop offset="1" stop-color="#FF4D00"/></linearGradient><linearGradient id="paint14_linear_294_146" x1="1378.55" y1="1281.36" x2="1386.83" y2="1289.64" gradientUnits="userSpaceOnUse"><stop stop-color="#FF9100"/><stop offset="1" stop-color="#FF4D00"/></linearGradient><linearGradient id="paint15_linear_294_146" x1="1405" y1="1281.42" x2="1413.54" y2="1289.45" gradientUnits="userSpaceOnUse"><stop stop-color="#FF9100"/><stop offset="1" stop-color="#FF4D00"/></linearGradient><linearGradient id="paint16_linear_294_146" x1="1431.27" y1="1281.36" x2="1439.55" y2="1289.64" gradientUnits="userSpaceOnUse"><stop stop-color="#FF9100"/><stop offset="1" stop-color="#FF4D00"/></linearGradient><linearGradient id="paint17_linear_294_146" x1="1457.83" y1="1281.36" x2="1466.11" y2="1289.64" gradientUnits="userSpaceOnUse"><stop stop-color="#FF9100"/><stop offset="1" stop-color="#FF4D00"/></linearGradient><linearGradient id="paint18_linear_294_146" x1="1338.71" y1="1257.15" x2="1346.99" y2="1265.43" gradientUnits="userSpaceOnUse"><stop stop-color="#FF9100"/><stop offset="1" stop-color="#FF4D00"/></linearGradient><linearGradient id="paint19_linear_294_146" x1="1365.3" y1="1257.21" x2="1373.86" y2="1265.45" gradientUnits="userSpaceOnUse"><stop stop-color="#FF9100"/><stop offset="1" stop-color="#FF4D00"/></linearGradient><linearGradient id="paint20_linear_294_146" x1="1391.83" y1="1257.15" x2="1400.11" y2="1265.43" gradientUnits="userSpaceOnUse"><stop stop-color="#FF9100"/><stop offset="1" stop-color="#FF4D00"/></linearGradient><linearGradient id="paint21_linear_294_146" x1="1417.99" y1="1257.15" x2="1426.27" y2="1265.43" gradientUnits="userSpaceOnUse"><stop stop-color="#FF9100"/><stop offset="1" stop-color="#FF4D00"/></linearGradient><linearGradient id="paint22_linear_294_146" x1="1444.55" y1="1257.15" x2="1452.83" y2="1265.43" gradientUnits="userSpaceOnUse"><stop stop-color="#FF9100"/><stop offset="1" stop-color="#FF4D00"/></linearGradient><linearGradient id="paint23_linear_294_146" x1="1471.11" y1="1257.21" x2="1479.66" y2="1265.48" gradientUnits="userSpaceOnUse"><stop stop-color="#FF9100"/><stop offset="1" stop-color="#FF4D00"/></linearGradient><linearGradient id="paint24_linear_294_146" x1="1352.08" y1="1329.4" x2="1360.36" y2="1337.92" gradientUnits="userSpaceOnUse"><stop stop-color="#FF9100"/><stop offset="1" stop-color="#FF4D00"/></linearGradient><linearGradient id="paint25_linear_294_146" x1="1378.55" y1="1329.4" x2="1386.83" y2="1337.68" gradientUnits="userSpaceOnUse"><stop stop-color="#FF9100"/><stop offset="1" stop-color="#FF4D00"/></linearGradient><linearGradient id="paint26_linear_294_146" x1="1405" y1="1329.46" x2="1413.54" y2="1337.49" gradientUnits="userSpaceOnUse"><stop stop-color="#FF9100"/><stop offset="1" stop-color="#FF4D00"/></linearGradient><linearGradient id="paint27_linear_294_146" x1="1431.27" y1="1329.4" x2="1439.55" y2="1337.68" gradientUnits="userSpaceOnUse"><stop stop-color="#FF9100"/><stop offset="1" stop-color="#FF4D00"/></linearGradient><linearGradient id="paint28_linear_294_146" x1="1457.83" y1="1329.4" x2="1466.11" y2="1337.68" gradientUnits="userSpaceOnUse"><stop stop-color="#FF9100"/><stop offset="1" stop-color="#FF4D00"/></linearGradient><linearGradient id="paint29_linear_294_146" x1="1338.71" y1="1305.19" x2="1346.99" y2="1313.47" gradientUnits="userSpaceOnUse"><stop stop-color="#FF9100"/><stop offset="1" stop-color="#FF4D00"/></linearGradient><linearGradient id="paint30_linear_294_146" x1="1365.36" y1="1305.24" x2="1373.92" y2="1313.77" gradientUnits="userSpaceOnUse"><stop stop-color="#FF9100"/><stop offset="1" stop-color="#FF4D00"/></linearGradient><linearGradient id="paint31_linear_294_146" x1="1391.83" y1="1305.19" x2="1400.11" y2="1313.47" gradientUnits="userSpaceOnUse"><stop stop-color="#FF9100"/><stop offset="1" stop-color="#FF4D00"/></linearGradient><linearGradient id="paint32_linear_294_146" x1="1417.99" y1="1305.19" x2="1426.27" y2="1313.47" gradientUnits="userSpaceOnUse"><stop stop-color="#FF9100"/><stop offset="1" stop-color="#FF4D00"/></linearGradient><linearGradient id="paint33_linear_294_146" x1="1444.55" y1="1305.19" x2="1452.83" y2="1313.47" gradientUnits="userSpaceOnUse"><stop stop-color="#FF9100"/><stop offset="1" stop-color="#FF4D00"/></linearGradient><linearGradient id="paint34_linear_294_146" x1="1471.11" y1="1305.24" x2="1479.66" y2="1313.52" gradientUnits="userSpaceOnUse"><stop stop-color="#FF9100"/><stop offset="1" stop-color="#FF4D00"/></linearGradient><linearGradient id="paint35_linear_294_146" x1="1339.05" y1="1353.67" x2="1347.6" y2="1361.99" gradientUnits="userSpaceOnUse"><stop stop-color="#FF9100"/><stop offset="1" stop-color="#FF4D00"/></linearGradient><linearGradient id="paint36_linear_294_146" x1="1365.27" y1="1353.67" x2="1373.82" y2="1361.95" gradientUnits="userSpaceOnUse"><stop stop-color="#FF9100"/><stop offset="1" stop-color="#FF4D00"/></linearGradient><linearGradient id="paint37_linear_294_146" x1="1391.83" y1="1353.67" x2="1400.38" y2="1361.95" gradientUnits="userSpaceOnUse"><stop stop-color="#FF9100"/><stop offset="1" stop-color="#FF4D00"/></linearGradient><linearGradient id="paint38_linear_294_146" x1="1418.27" y1="1353.67" x2="1426.82" y2="1361.71" gradientUnits="userSpaceOnUse"><stop stop-color="#FF9100"/><stop offset="1" stop-color="#FF4D00"/></linearGradient><linearGradient id="paint39_linear_294_146" x1="1444.55" y1="1353.67" x2="1453.1" y2="1361.95" gradientUnits="userSpaceOnUse"><stop stop-color="#FF9100"/><stop offset="1" stop-color="#FF4D00"/></linearGradient><linearGradient id="paint40_linear_294_146" x1="1471.11" y1="1353.67" x2="1479.66" y2="1361.95" gradientUnits="userSpaceOnUse"><stop stop-color="#FF9100"/><stop offset="1" stop-color="#FF4D00"/></linearGradient><linearGradient id="paint41_linear_294_146" x1="1484.97" y1="1139.91" x2="1484.97" y2="1107.98" gradientUnits="userSpaceOnUse"><stop stop-color="#FFD328"/><stop offset="1" stop-color="#FFA700"/></linearGradient><linearGradient id="paint43_linear_294_146" x1="1401" y1="292.99" x2="1433" y2="292.99" gradientUnits="userSpaceOnUse"><stop stop-color="#C72A16"/><stop offset=".998" stop-color="#BA2244"/></linearGradient><linearGradient id="paint44_linear_294_146" x1="1450" y1="189" x2="1468" y2="189" gradientUnits="userSpaceOnUse"><stop stop-color="#6A11CB"/><stop offset="1" stop-color="#2575FC"/></linearGradient><linearGradient id="paint45_linear_294_146" x1="142.557" y1="24.181" x2="159.19" y2="7.548" gradientUnits="userSpaceOnUse"><stop stop-color="#FF9100"/><stop offset="1" stop-color="#FF4D00"/></linearGradient><linearGradient id="paint46_linear_294_146" x1="162.283" y1="24.181" x2="178.916" y2="7.548" gradientUnits="userSpaceOnUse"><stop stop-color="#FF9100"/><stop offset="1" stop-color="#FF4D00"/></linearGradient><linearGradient id="paint47_linear_294_146" x1="182.008" y1="24.18" x2="198.641" y2="7.548" gradientUnits="userSpaceOnUse"><stop stop-color="#FF9100"/><stop offset="1" stop-color="#FF4D00"/></linearGradient><radialGradient id="paint42_radial_294_146" cx="0" cy="0" r="1" gradientUnits="userSpaceOnUse" gradientTransform="matrix(45.93154 12.07408 -10.59279 40.29649 42.397 773.826)"><stop stop-color="#5B2AA4"/><stop offset=".994" stop-color="#481A72"/></radialGradient></defs></svg>