<svg width="24" height="25" viewBox="0 0 24 25" fill="none" xmlns="http://www.w3.org/2000/svg"><g clip-path="url(#clip0_30_17341)"><path d="M18.686 13.465a7.754 7.754 0 01-.572 3.861l1.852 2.392a.472.472 0 00.681.067 8.45 8.45 0 002.926-5.82.47.47 0 00-.47-.5h-4.417z" fill="url(#paint0_linear_30_17341)"/><path d="M14.037 1.312V7.16a7.82 7.82 0 013.702 3.341h5.376a.47.47 0 00.471-.486c-.191-4.97-4.155-8.925-9.058-9.174a.47.47 0 00-.491.47z" fill="url(#paint1_linear_30_17341)"/><path d="M11.041 22.065c-4.28.044-7.817-3.426-7.851-7.707-.035-4.313 3.464-7.834 7.77-7.834V4.231a.471.471 0 00-.492-.471C4.872 4.017.413 8.635.413 14.295c0 5.835 4.78 10.583 10.616 10.546 2.2-.014 4.24-.702 5.925-1.868a.47.47 0 00.103-.675l-1.404-1.814a7.732 7.732 0 01-4.612 1.58z" fill="url(#paint2_linear_30_17341)"/><path d="M4.602 14.294a6.365 6.365 0 006.357 6.358 6.365 6.365 0 006.358-6.358 6.366 6.366 0 00-6.357-6.358 6.365 6.365 0 00-6.358 6.358zm7.064-4.223v.673a2.48 2.48 0 011.817.79.707.707 0 01-1.031.966 1.063 1.063 0 00-.758-.343h-1.526a.715.715 0 100 1.431h1.583a2.13 2.13 0 012.129 2.128c0 1.097-.844 2.129-2.214 2.129v.673a.706.706 0 11-1.413 0v-.673c-.497 0-.987-.054-1.561-.452a.706.706 0 01.805-1.16c.17.118.38.197.59.2h1.664a.715.715 0 100-1.432h-1.583a2.13 2.13 0 01-2.129-2.129c0-1.1.847-2.128 2.214-2.128v-.673a.706.706 0 011.413 0z" fill="url(#paint3_linear_30_17341)"/></g><defs><linearGradient id="paint0_linear_30_17341" x1="18.114" y1="16.683" x2="23.575" y2="16.683" gradientUnits="userSpaceOnUse"><stop stop-color="#6A11CB"/><stop offset="1" stop-color="#2575FC"/></linearGradient><linearGradient id="paint1_linear_30_17341" x1="14.037" y1="5.671" x2="23.586" y2="5.671" gradientUnits="userSpaceOnUse"><stop stop-color="#6A11CB"/><stop offset="1" stop-color="#2575FC"/></linearGradient><linearGradient id="paint2_linear_30_17341" x1=".413" y1="14.3" x2="17.156" y2="14.3" gradientUnits="userSpaceOnUse"><stop stop-color="#6A11CB"/><stop offset="1" stop-color="#2575FC"/></linearGradient><linearGradient id="paint3_linear_30_17341" x1="4.602" y1="14.294" x2="17.317" y2="14.294" gradientUnits="userSpaceOnUse"><stop stop-color="#6A11CB"/><stop offset="1" stop-color="#2575FC"/></linearGradient><clipPath id="clip0_30_17341"><path fill="#fff" transform="translate(0 .84)" d="M0 0h24v24H0z"/></clipPath></defs></svg>