<svg width="24" height="25" viewBox="0 0 24 25" fill="none" xmlns="http://www.w3.org/2000/svg"><g clip-path="url(#clip0_30_17407)"><path d="M14.813 2.157h-.824A2.114 2.114 0 0012 .75c-.917 0-1.699.588-1.99 1.407h-.822c-1.164 0-2.11.946-2.11 2.11 0 .388.315.702.703.702h8.438a.703.703 0 00.703-.703c0-1.163-.946-2.11-2.11-2.11z" fill="url(#paint0_linear_30_17407)"/><path d="M19.031 3.563h-.774c.046.227.071.462.071.703 0 1.163-.946 2.11-2.11 2.11H7.782a2.112 2.112 0 01-2.11-2.11c0-.24.026-.476.072-.703H4.97c-1.163 0-2.11.946-2.11 2.11V22.64c0 1.163.947 2.11 2.11 2.11h14.06c1.163 0 2.11-.947 2.11-2.11V5.672a2.112 2.112 0 00-2.11-2.109zm-9.14 16.875H7.078a.703.703 0 110-1.406h2.813a.703.703 0 110 1.406zm0-4.922H7.078a.703.703 0 110-1.406h2.813a.703.703 0 110 1.406zm0-4.922H7.078a.703.703 0 110-1.406h2.813a.703.703 0 110 1.406zm6.825 10.05a.703.703 0 11-.994.994l-.91-.909-.909.91a.701.701 0 01-.994 0 .703.703 0 010-.995l.91-.91-.91-.908a.703.703 0 11.994-.995l.91.91.909-.91a.703.703 0 11.994.995l-.91.909.91.909zm.703-6.74l-2.11 2.11a.7.7 0 01-.994 0l-1.406-1.407a.703.703 0 11.994-.994l.91.909 1.612-1.612a.703.703 0 11.994.994zm0-4.219l-2.11 2.11a.7.7 0 01-.994 0l-1.406-1.407a.703.703 0 11.994-.994l.91.91 1.612-1.613a.703.703 0 11.994.994z" fill="url(#paint1_linear_30_17407)"/></g><defs><linearGradient id="paint0_linear_30_17407" x1="7.078" y1="2.86" x2="16.922" y2="2.86" gradientUnits="userSpaceOnUse"><stop stop-color="#6A11CB"/><stop offset="1" stop-color="#2575FC"/></linearGradient><linearGradient id="paint1_linear_30_17407" x1="2.859" y1="14.157" x2="21.141" y2="14.157" gradientUnits="userSpaceOnUse"><stop stop-color="#6A11CB"/><stop offset="1" stop-color="#2575FC"/></linearGradient><clipPath id="clip0_30_17407"><path fill="#fff" transform="translate(0 .75)" d="M0 0h24v24H0z"/></clipPath></defs></svg>