<svg width="24" height="25" viewBox="0 0 24 25" fill="none" xmlns="http://www.w3.org/2000/svg"><path d="M24 6.398v-3.53A2.116 2.116 0 0021.89.75H2.11C.945.75 0 1.7 0 2.868v3.53h24zm-7.781-2.824h4.218c.389 0 .704.316.704.706 0 .39-.315.706-.703.706h-4.22a.705.705 0 01-.702-.706c0-.39.314-.706.703-.706zm-7.032 0c.389 0 .704.316.704.706a.705.705 0 11-1.406 0c0-.39.314-.706.703-.706zm-2.812 0c.388 0 .703.316.703.706 0 .39-.315.706-.703.706a.705.705 0 01-.703-.706c0-.39.315-.706.703-.706zm-2.813 0c.389 0 .704.316.704.706a.705.705 0 11-1.406 0c0-.39.314-.706.703-.706z" fill="url(#paint0_linear_30_17273)"/><path d="M0 7.81v14.823C0 23.8.946 24.75 2.11 24.75h19.78c1.164 0 2.11-.95 2.11-2.117V7.809H0zm8.22 10.036a.708.708 0 01.11.992.701.701 0 01-.988.11l-3.516-2.823a.708.708 0 010-1.102l3.516-2.824a.701.701 0 01.988.11.708.708 0 01-.11.993l-2.829 2.272 2.83 2.272zm6.536-6.935l-4.22 9.882a.702.702 0 01-.922.371.707.707 0 01-.37-.927l4.22-9.882a.702.702 0 01.922-.37.707.707 0 01.37.926zm5.418 5.214l-3.516 2.824a.701.701 0 01-.988-.11.708.708 0 01.11-.993l2.829-2.272-2.83-2.272a.708.708 0 01-.11-.992.701.701 0 01.989-.11l3.516 2.823a.708.708 0 010 1.102z" fill="url(#paint1_linear_30_17273)"/><defs><linearGradient id="paint0_linear_30_17273" x1="0" y1="3.574" x2="24" y2="3.574" gradientUnits="userSpaceOnUse"><stop stop-color="#6A11CB"/><stop offset="1" stop-color="#2575FC"/></linearGradient><linearGradient id="paint1_linear_30_17273" x1="0" y1="16.28" x2="24" y2="16.28" gradientUnits="userSpaceOnUse"><stop stop-color="#6A11CB"/><stop offset="1" stop-color="#2575FC"/></linearGradient></defs></svg>