<svg width="24" height="25" viewBox="0 0 24 25" fill="none" xmlns="http://www.w3.org/2000/svg"><g clip-path="url(#clip0_30_17086)"><path d="M15.491 13.454c-.327 1.602-1.794 2.812-3.491 2.812a3.521 3.521 0 01-3.445-2.812H7.15c.345 2.378 2.378 4.218 4.85 4.218 2.474 0 4.554-1.84 4.898-4.218h-1.406z" fill="url(#paint0_linear_30_17086)"/><path d="M18.304 13.454c-.355 3.155-3.055 5.625-6.304 5.625s-5.902-2.47-6.257-5.625H0v.703c0 .303.194.572.481.667l2.893.944c.122.345.25.659.388.948L2.427 19.4a.703.703 0 00.132.81l1.983 1.982c.215.215.54.266.81.133l2.682-1.335c.29.137.604.266.948.387l.944 2.893a.704.704 0 00.668.482h2.86a.704.704 0 00.666-.482l.945-2.893c.344-.121.658-.25.948-.387l2.682 1.335c.27.134.596.082.81-.133l1.983-1.982a.703.703 0 00.132-.81l-1.335-2.683c.137-.29.266-.603.387-.948l2.847-.944a.704.704 0 00.481-.667v-.703h-5.696z" fill="url(#paint1_linear_30_17086)"/><path d="M10.02 13.454A2.106 2.106 0 0012 14.86c.915 0 1.735-.59 2.027-1.406H10.02z" fill="url(#paint2_linear_30_17086)"/><path d="M12 .75a2.815 2.815 0 00-2.813 2.813A2.815 2.815 0 0012 6.375c1.551 0 2.86-1.26 2.86-2.812C14.86 2.012 13.55.75 12 .75z" fill="url(#paint3_linear_30_17086)"/><path d="M19.078.75a2.815 2.815 0 00-2.812 2.813 2.815 2.815 0 002.812 2.812 2.815 2.815 0 002.813-2.812A2.815 2.815 0 0019.078.75z" fill="url(#paint4_linear_30_17086)"/><path d="M4.969.75a2.815 2.815 0 00-2.813 2.813A2.815 2.815 0 004.97 6.375a2.815 2.815 0 002.81-2.812A2.815 2.815 0 004.97.75z" fill="url(#paint5_linear_30_17086)"/><path d="M21.476 7.026a4.188 4.188 0 01-4.788.007 5.117 5.117 0 00-.873.616 6.424 6.424 0 012.517 4.399H24v-.704a4.982 4.982 0 00-2.524-4.318z" fill="url(#paint6_linear_30_17086)"/><path d="M12 7.782c-2.475 0-4.53 1.883-4.872 4.265h9.79c-.34-2.382-2.441-4.265-4.918-4.265z" fill="url(#paint7_linear_30_17086)"/><path d="M7.36 7.033a4.19 4.19 0 01-4.79-.007C1.073 7.871 0 9.506 0 11.345v.703h5.715a6.424 6.424 0 012.517-4.399 5.122 5.122 0 00-.873-.616z" fill="url(#paint8_linear_30_17086)"/></g><defs><linearGradient id="paint0_linear_30_17086" x1="7.149" y1="15.563" x2="16.897" y2="15.563" gradientUnits="userSpaceOnUse"><stop stop-color="#6A11CB"/><stop offset="1" stop-color="#2575FC"/></linearGradient><linearGradient id="paint1_linear_30_17086" x1="0" y1="19.102" x2="24" y2="19.102" gradientUnits="userSpaceOnUse"><stop stop-color="#6A11CB"/><stop offset="1" stop-color="#2575FC"/></linearGradient><linearGradient id="paint2_linear_30_17086" x1="10.02" y1="14.157" x2="14.027" y2="14.157" gradientUnits="userSpaceOnUse"><stop stop-color="#6A11CB"/><stop offset="1" stop-color="#2575FC"/></linearGradient><linearGradient id="paint3_linear_30_17086" x1="9.188" y1="3.563" x2="14.859" y2="3.563" gradientUnits="userSpaceOnUse"><stop stop-color="#6A11CB"/><stop offset="1" stop-color="#2575FC"/></linearGradient><linearGradient id="paint4_linear_30_17086" x1="16.266" y1="3.563" x2="21.891" y2="3.563" gradientUnits="userSpaceOnUse"><stop stop-color="#6A11CB"/><stop offset="1" stop-color="#2575FC"/></linearGradient><linearGradient id="paint5_linear_30_17086" x1="2.156" y1="3.563" x2="7.781" y2="3.563" gradientUnits="userSpaceOnUse"><stop stop-color="#6A11CB"/><stop offset="1" stop-color="#2575FC"/></linearGradient><linearGradient id="paint6_linear_30_17086" x1="15.815" y1="9.537" x2="24" y2="9.537" gradientUnits="userSpaceOnUse"><stop stop-color="#6A11CB"/><stop offset="1" stop-color="#2575FC"/></linearGradient><linearGradient id="paint7_linear_30_17086" x1="7.128" y1="9.915" x2="16.919" y2="9.915" gradientUnits="userSpaceOnUse"><stop stop-color="#6A11CB"/><stop offset="1" stop-color="#2575FC"/></linearGradient><linearGradient id="paint8_linear_30_17086" x1="0" y1="9.537" x2="8.232" y2="9.537" gradientUnits="userSpaceOnUse"><stop stop-color="#6A11CB"/><stop offset="1" stop-color="#2575FC"/></linearGradient><clipPath id="clip0_30_17086"><path fill="#fff" transform="translate(0 .75)" d="M0 0h24v24H0z"/></clipPath></defs></svg>