<svg width="24" height="25" viewBox="0 0 24 25" fill="none" xmlns="http://www.w3.org/2000/svg"><g clip-path="url(#clip0_30_17054)"><path d="M7.078 20.485a2.815 2.815 0 00-2.812-2.813 2.815 2.815 0 00-2.813 2.813v1.406c0 .775-.678 1.453-1.453 1.453v1.406h2.86c2.326 0 4.218-1.94 4.218-4.265z" fill="url(#paint0_linear_30_17054)"/><path d="M11.768 6.638a.702.702 0 10.363 1.357.702.702 0 00-.363-1.357z" fill="url(#paint1_linear_30_17054)"/><path d="M7.79 11.974a.703.703 0 00.365-1.358c-.2-.054-.254-.014-.395.032.008.424.014.864.017 1.319.005.001.009.005.014.007z" fill="url(#paint2_linear_30_17054)"/><path d="M15.541 18a.703.703 0 10-1.357.364.703.703 0 001.357-.362V18z" fill="url(#paint3_linear_30_17054)"/><path d="M17.88 9.27a.704.704 0 10-.995-.995.704.704 0 00.996.996z" fill="url(#paint4_linear_30_17054)"/><path d="M13.447 2.166c-2.31.084-4.43.997-6.12 2.156.19 1.29.323 2.894.395 4.88a2.107 2.107 0 012.288 2.64 2.11 2.11 0 01-2.034 1.563c-.068 0-.135-.02-.202-.027a87.39 87.39 0 01-.083 3.3c.72.299 1.283.697 1.65 1.214.745 1.045.547 2.272.468 2.623-.26 1.168.428 2.357 1.608 2.584a10.62 10.62 0 002.002.191c5.783 0 10.628-4.697 10.58-10.624-.049-6.012-5.25-10.7-10.552-10.5zm2.444 5.115a2.113 2.113 0 012.984 0c.823.823.823 2.16 0 2.984a2.114 2.114 0 01-2.983 0 2.115 2.115 0 01-.001-2.984zm-5.978.58a2.107 2.107 0 011.491-2.582 2.114 2.114 0 012.584 1.492 2.108 2.108 0 01-1.492 2.583 2.107 2.107 0 01-2.583-1.492zm5.495 12.36a2.112 2.112 0 01-2.584-1.492 2.108 2.108 0 011.492-2.583 2.107 2.107 0 012.583 1.492 2.107 2.107 0 01-1.492 2.583zm5.469-5.47a2.108 2.108 0 01-2.584 1.492 2.108 2.108 0 112.583-1.491z" fill="url(#paint5_linear_30_17054)"/><path d="M19.021 13.527a.702.702 0 10-.365 1.357.702.702 0 00.365-1.357z" fill="url(#paint6_linear_30_17054)"/><path d="M6.366 13.453c.002-.235.009-.466.009-.703 0-5.452-.366-12-2.11-12-1.743 0-2.109 6.548-2.109 12 0 .237.007.468.009.703h4.201z" fill="url(#paint7_linear_30_17054)"/><path d="M4.266 16.266c.732 0 1.412.204 2.013.534.03-.63.053-1.28.07-1.94H2.182c.016.66.04 1.31.07 1.94a4.166 4.166 0 012.013-.534z" fill="url(#paint8_linear_30_17054)"/></g><defs><linearGradient id="paint0_linear_30_17054" x1="0" y1="21.211" x2="7.078" y2="21.211" gradientUnits="userSpaceOnUse"><stop stop-color="#6A11CB"/><stop offset="1" stop-color="#2575FC"/></linearGradient><linearGradient id="paint1_linear_30_17054" x1="11.247" y1="7.317" x2="12.654" y2="7.317" gradientUnits="userSpaceOnUse"><stop stop-color="#6A11CB"/><stop offset="1" stop-color="#2575FC"/></linearGradient><linearGradient id="paint2_linear_30_17054" x1="7.76" y1="11.294" x2="8.676" y2="11.294" gradientUnits="userSpaceOnUse"><stop stop-color="#6A11CB"/><stop offset="1" stop-color="#2575FC"/></linearGradient><linearGradient id="paint3_linear_30_17054" x1="14.159" y1="18.183" x2="15.565" y2="18.183" gradientUnits="userSpaceOnUse"><stop stop-color="#6A11CB"/><stop offset="1" stop-color="#2575FC"/></linearGradient><linearGradient id="paint4_linear_30_17054" x1="16.68" y1="8.773" x2="18.086" y2="8.773" gradientUnits="userSpaceOnUse"><stop stop-color="#6A11CB"/><stop offset="1" stop-color="#2575FC"/></linearGradient><linearGradient id="paint5_linear_30_17054" x1="7.327" y1="12.725" x2="24" y2="12.725" gradientUnits="userSpaceOnUse"><stop stop-color="#6A11CB"/><stop offset="1" stop-color="#2575FC"/></linearGradient><linearGradient id="paint6_linear_30_17054" x1="18.136" y1="14.206" x2="19.542" y2="14.206" gradientUnits="userSpaceOnUse"><stop stop-color="#6A11CB"/><stop offset="1" stop-color="#2575FC"/></linearGradient><linearGradient id="paint7_linear_30_17054" x1="2.156" y1="7.102" x2="6.375" y2="7.102" gradientUnits="userSpaceOnUse"><stop stop-color="#6A11CB"/><stop offset="1" stop-color="#2575FC"/></linearGradient><linearGradient id="paint8_linear_30_17054" x1="2.183" y1="15.83" x2="6.348" y2="15.83" gradientUnits="userSpaceOnUse"><stop stop-color="#6A11CB"/><stop offset="1" stop-color="#2575FC"/></linearGradient><clipPath id="clip0_30_17054"><path fill="#fff" transform="translate(0 .75)" d="M0 0h24v24H0z"/></clipPath></defs></svg>