<svg width="24" height="19" viewBox="0 0 24 19" fill="none" xmlns="http://www.w3.org/2000/svg">
<path fill-rule="evenodd" clip-rule="evenodd" d="M0.923077 0C0.678262 0 0.443473 0.11121 0.270363 0.309165C0.0972524 0.50712 0 0.775605 0 1.05556C0 1.33551 0.0972524 1.60399 0.270363 1.80195C0.443473 1.9999 0.678262 2.11111 0.923077 2.11111H23.0769C23.3217 2.11111 23.5565 1.9999 23.7296 1.80195C23.9027 1.60399 24 1.33551 24 1.05556C24 0.775605 23.9027 0.50712 23.7296 0.309165C23.5565 0.11121 23.3217 0 23.0769 0H0.923077ZM0 9.5C0 9.22005 0.0972524 8.95156 0.270363 8.75361C0.443473 8.55565 0.678262 8.44444 0.923077 8.44444H23.0769C23.3217 8.44444 23.5565 8.55565 23.7296 8.75361C23.9027 8.95156 24 9.22005 24 9.5C24 9.77995 23.9027 10.0484 23.7296 10.2464C23.5565 10.4443 23.3217 10.5556 23.0769 10.5556H0.923077C0.678262 10.5556 0.443473 10.4443 0.270363 10.2464C0.0972524 10.0484 0 9.77995 0 9.5ZM0 17.9444C0 17.6645 0.0972524 17.396 0.270363 17.1981C0.443473 17.0001 0.678262 16.8889 0.923077 16.8889H23.0769C23.3217 16.8889 23.5565 17.0001 23.7296 17.1981C23.9027 17.396 24 17.6645 24 17.9444C24 18.2244 23.9027 18.4929 23.7296 18.6908C23.5565 18.8888 23.3217 19 23.0769 19H0.923077C0.678262 19 0.443473 18.8888 0.270363 18.6908C0.0972524 18.4929 0 18.2244 0 17.9444Z" fill="black"/>
</svg>
